medio_regular.sfdir

StartChar: exclam
Encoding: 33 33 75
Width: 262
Flags: MW
HStem: -10 681<117 145>
VStem: 78 106 127 10<167 203>
LayerCount: 2
Fore
SplineSet
181 40 m 0xa0
 181 68 159 90 131 90 c 0
 103 90 81 68 81 40 c 0
 81 12 103 -10 131 -10 c 0
 159 -10 181 12 181 40 c 0xa0
127 167 m 1
 125 169 l 1
 125 237 118 337 110 408 c 0xa0
 102 483 93 534 81 591 c 0
 70 643 93 671 131 671 c 0
 169 671 192 643 181 591 c 0xc0
 169 534 160 483 152 408 c 0
 144 337 137 237 137 169 c 1
 135 167 l 1
 127 167 l 1
EndSplineSet
EndChar

StartChar: numbersign
Encoding: 35 35 96
Width: 406
Flags: MW
HStem: 192 50<33 123 23 133 150 222 33 139 249 338> 358 50<68 157 57 168 68 174 184 256 283 373>
VStem: 23 360<192 408>
LayerCount: 2
Fore
SplineSet
273 358 m 1
 249 242 l 1
 349 242 l 1
 338 192 l 1
 238 192 l 1
 203 20 l 1
 186 20 l 1
 222 192 l 1
 139 192 l 1
 104 20 l 1
 87 20 l 1
 123 192 l 1
 23 192 l 1
 33 242 l 1
 133 242 l 1
 157 358 l 1
 57 358 l 1
 68 408 l 1
 168 408 l 1
 203 581 l 1
 220 581 l 1
 184 408 l 1
 267 408 l 1
 302 581 l 1
 319 581 l 1
 283 408 l 1
 383 408 l 1
 373 358 l 1
 273 358 l 1
232 242 m 1
 256 358 l 1
 174 358 l 1
 150 242 l 1
 232 242 l 1
EndSplineSet
EndChar

StartChar: dollar
Encoding: 36 36 77
Width: 518
Flags: MW
HStem: -101 21G<216 216 232 232 273 273 289 289> 0 14<232 237.5> 1 13 596 14<268 273 268 273>
VStem: 65 8<192.5 217> 75 62<465.5 482.5> 216 16<-101 0 -101 1 -101 1 15 272 377 590 590 590 607 715> 273 16<-101 1 1 1 17 249 354 595 610 715> 388 64<127.5 152.5> 416 8<393 417.5>
LayerCount: 2
Fore
SplineSet
452 176 m 0xdb80
 452 79 384 17 289 3 c 1
 289 -101 l 1
 287 -103 l 1
 275 -103 l 1
 273 -101 l 1
 273 1 l 1
 262 0 243 0 232 0 c 1xdb40
 232 -101 l 1
 230 -103 l 1
 218 -103 l 1
 216 -101 l 1
 216 1 l 1
 158 5 108 20 62 44 c 1
 61 47 l 1
 64 80 65 168 65 217 c 1
 73 217 l 1
 75 215 l 1
 78 174 83 140 92 116 c 0xbb40
 112 65 152 24 216 15 c 1
 216 278 l 1
 125 314 75 361 75 448 c 0
 75 517 133 584 216 604 c 1
 216 715 l 1
 218 717 l 1
 230 717 l 1
 232 715 l 1
 232 607 l 1
 243 609 263 610 273 610 c 1
 273 715 l 1
 275 717 l 1
 287 717 l 1
 289 715 l 1
 289 609 l 1
 349 606 386 591 427 566 c 1
 428 563 l 1
 425 530 424 442 424 393 c 1
 416 393 l 1
 414 395 l 1
 411 436 406 475 397 499 c 0xb740
 377 551 350 588 289 595 c 1
 289 349 l 1
 408 306 452 252 452 176 c 0xdb80
232 370 m 1xd780
 273 354 l 1
 273 596 l 1
 260 596 242 595 232 593 c 1
 232 370 l 1xd780
137 496 m 0
 137 435 157 404 216 377 c 1
 216 590 l 1
 168 576 137 542 137 496 c 0
273 256 m 1
 232 272 l 1
 232 14 l 1
 244 13 261 14 273 15 c 1
 273 256 l 1
289 17 m 1
 353 28 388 65 388 127 c 0
 388 178 367 212 289 249 c 1
 289 17 l 1
EndSplineSet
EndChar

StartChar: percent
Encoding: 37 37 92
Width: 816
Flags: MW
HStem: -37 21G<191 191> -29 21G<178 178> -13 14<582 630 582 653.5> 300 14<186 234 186 257.5> 307 14<582 630> 620 14<186 234>
VStem: 56 74<422.5 511.5> 290 74<422.5 511.5 422.5 516> 452 74<109.5 198.5> 686 74<109.5 198.5 109.5 203>
LayerCount: 2
Fore
SplineSet
606 321 m 0x2fc0
 701 321 760 243 760 154 c 0
 760 65 701 -13 606 -13 c 0
 511 -13 452 65 452 154 c 0
 452 243 511 321 606 321 c 0x2fc0
606 1 m 0
 654 1 686 56 686 154 c 0
 686 252 654 307 606 307 c 0
 558 307 526 252 526 154 c 0
 526 56 558 1 606 1 c 0
210 634 m 0
 305 634 364 556 364 467 c 0
 364 378 305 300 210 300 c 0x37c0
 115 300 56 378 56 467 c 0
 56 556 115 634 210 634 c 0
210 314 m 0x97c0
 258 314 290 369 290 467 c 0
 290 565 258 620 210 620 c 0
 162 620 130 565 130 467 c 0
 130 369 162 314 210 314 c 0x97c0
191 -37 m 1
 178 -29 l 1x4fc0
 609 658 l 1
 622 650 l 1
 191 -37 l 1
EndSplineSet
EndChar

StartChar: ampersand
Encoding: 38 38 90
Width: 959
Flags: MW
HStem: -10 11<412.5 536 412.5 545.5> 334 41<654 755> 660 10<398 442.5>
VStem: 236 87<550.5 584> 312 55<408.5 459> 730 88<203.5 265.5>
LayerCount: 2
Fore
SplineSet
883 647 m 1xf4
 883 645 l 1
 867 618 847 598 805 575 c 0
 786 565 746 540 737 533 c 0
 714 515 708 506 698 444 c 0
 690 393 663 368 576 320 c 1
 682 371 704 375 734 375 c 0
 776 375 818 340 818 282 c 0
 818 125 640 -10 451 -10 c 0
 310 -10 220 28 133 160 c 0
 119 181 100 198 72 198 c 0
 65 198 61 197 54 194 c 1
 51 202 l 1
 179 287 222 321 282 371 c 0
 303 388 312 400 312 417 c 0xec
 312 432 301 444 272 468 c 0
 251 486 236 510 236 544 c 0
 236 624 328 670 423 670 c 0
 470 670 518 654 550 636 c 1
 551 634 l 1
 528 606 504 575 475 534 c 1
 467 539 l 1
 466 542 l 1
 500 586 509 599 520 619 c 0
 523 624 521 631 516 635 c 0
 499 648 462 660 423 660 c 0
 373 660 323 634 323 565 c 0xf4
 323 536 330 520 343 504 c 0
 361 482 367 467 367 451 c 0
 367 435 361 422 350 409 c 1xec
 308 377 214 302 161 257 c 1
 178 253 201 228 210 209 c 0
 274 67 354 1 471 1 c 0
 601 1 730 92 730 245 c 0
 730 286 711 334 663 334 c 0
 645 334 628 330 604 320 c 0
 543 295 493 273 446 252 c 1
 442 261 l 1
 443 264 l 1
 578 320 599 337 618 455 c 0
 623 486 634 497 667 513 c 0
 716 537 779 571 799 582 c 0
 834 601 858 621 873 651 c 1
 883 647 l 1xf4
EndSplineSet
EndChar

StartChar: quotesingle
Encoding: 39 39 81
Width: 216
Flags: MW
HStem: 484 227<57 98> 618 93<64 69.5>
VStem: 121 26<597 605.5>
LayerCount: 2
Fore
SplineSet
53 491 m 1xa0
 90 514 121 553 121 596 c 0
 121 615 114 629 101 638 c 1
 89 624 77 618 62 618 c 0
 40 618 23 635 23 662 c 0
 23 690 49 711 79 711 c 0
 117 711 147 674 147 630 c 0x60
 147 564 100 509 57 484 c 1
 53 491 l 1xa0
EndSplineSet
EndChar

StartChar: parenleft
Encoding: 40 40 72
Width: 312
Flags: MW
HStem: -94 21G<283 285 283 283> -86 21G<293 293>
VStem: 89 54<225.5 388.5>
LayerCount: 2
Fore
SplineSet
143 307 m 0x60
 143 141 195 14 293 -84 c 1
 293 -86 l 1
 285 -94 l 1
 283 -94 l 1xa0
 160 4 89 144 89 307 c 0
 89 470 160 610 283 708 c 1
 285 708 l 1
 293 700 l 1
 293 698 l 1
 195 600 143 473 143 307 c 0x60
EndSplineSet
EndChar

StartChar: parenright
Encoding: 41 41 71
Width: 312
Flags: MW
HStem: -94 10<19 29 19 27> -86 21G<19 19>
VStem: 169 54<225.5 388.5 225.5 390>
LayerCount: 2
Fore
SplineSet
169 307 m 0x60
 169 473 117 600 19 698 c 1
 19 700 l 1
 27 708 l 1
 29 708 l 1
 152 610 223 470 223 307 c 0
 223 144 152 4 29 -94 c 1
 27 -94 l 1
 19 -86 l 1
 19 -84 l 1xa0
 117 14 169 141 169 307 c 0x60
EndSplineSet
EndChar

StartChar: asterisk
Encoding: 42 42 74
Width: 348
Flags: MW
HStem: 465 181
VStem: 153 42<436 436 676 676> 161 16<543 551> 171 16<543 551>
LayerCount: 2
Fore
SplineSet
177 543 m 1x90
 182 503 189 460 195 436 c 0
 200 413 191 400 174 400 c 0
 157 400 148 413 153 436 c 0
 159 460 166 503 171 543 c 1
 177 543 l 1x90
187 551 m 1xc0
 225 536 263 522 287 515 c 0
 310 508 318 493 309 478 c 0
 300 463 284 460 267 477 c 0
 251 493 216 522 184 546 c 1
 187 551 l 1xc0
187 561 m 1
 184 565 l 1
 216 590 251 619 267 635 c 0
 284 652 300 649 309 634 c 0
 318 619 310 604 287 597 c 0
 263 590 225 576 187 561 c 1
161 551 m 1xa0
 164 546 l 1
 131 522 97 493 81 477 c 0
 64 460 48 463 39 478 c 0
 30 493 38 508 61 515 c 0
 85 522 123 536 161 551 c 1xa0
161 561 m 1
 123 576 85 590 61 597 c 0
 38 604 30 619 39 634 c 0
 48 649 64 652 81 635 c 0
 97 619 131 590 164 565 c 1
 161 561 l 1
171 569 m 1xc0
 166 609 159 651 153 676 c 0
 148 699 157 712 174 712 c 0
 191 712 200 699 195 676 c 0
 189 651 182 609 177 569 c 1
 171 569 l 1xc0
EndSplineSet
EndChar

StartChar: plus
Encoding: 43 43 68
Width: 504
Flags: MW
HStem: -5 21G<244 244 260 260> 193 14<47 244 47 244 260 457>
VStem: 244 16<-5 193 -5 193 207 405>
LayerCount: 2
Fore
SplineSet
457 193 m 1
 260 193 l 1
 260 -5 l 1
 258 -7 l 1
 246 -7 l 1
 244 -5 l 1
 244 193 l 1
 47 193 l 1
 45 195 l 1
 45 205 l 1
 47 207 l 1
 244 207 l 1
 244 405 l 1
 246 407 l 1
 258 407 l 1
 260 405 l 1
 260 207 l 1
 457 207 l 1
 459 205 l 1
 459 195 l 1
 457 193 l 1
EndSplineSet
EndChar

StartChar: comma
Encoding: 44 44 65
Width: 202
Flags: MW
HStem: -133 21G<81 81> -6 21G<79 97.5> -6 93<92 97.5>
VStem: 149 26<-27 -18.5>
LayerCount: 2
Fore
SplineSet
81 -133 m 1xd0
 118 -110 149 -71 149 -28 c 0
 149 -9 142 5 129 14 c 1
 117 0 105 -6 90 -6 c 0
 68 -6 51 11 51 38 c 0
 51 66 77 87 107 87 c 0
 145 87 175 50 175 6 c 0xb0
 175 -60 128 -115 85 -140 c 1
 81 -133 l 1xd0
EndSplineSet
EndChar

StartChar: hyphen
Encoding: 45 45 88
Width: 403
Flags: MW
HStem: 179 42<119 278 148 255>
VStem: 89 225<181 219>
LayerCount: 2
Fore
SplineSet
255 179 m 2
 125 179 l 2
 113 179 101 177 93 175 c 1
 92 175 l 1
 89 181 l 1
 98 190 116 206 128 214 c 0
 134 218 140 221 148 221 c 2
 278 221 l 2
 290 221 302 223 310 225 c 1
 311 225 l 1
 314 219 l 1
 305 210 287 194 275 186 c 0
 269 182 263 179 255 179 c 2
EndSplineSet
EndChar

StartChar: period
Encoding: 46 46 64
Width: 202
Flags: MW
HStem: -13 100<87 115>
VStem: 51 100<23 51>
LayerCount: 2
Fore
SplineSet
151 37 m 0
 151 9 129 -13 101 -13 c 0
 73 -13 51 9 51 37 c 0
 51 65 73 87 101 87 c 0
 129 87 151 65 151 37 c 0
EndSplineSet
EndChar

StartChar: slash
Encoding: 47 47 89
Width: 364
Flags: MW
HStem: -93 21G<12 12> -87 21G<-1 -1>
VStem: -1 366
LayerCount: 2
Fore
SplineSet
12 -93 m 1xa0
 -1 -87 l 1x60
 352 701 l 1
 365 695 l 1
 12 -93 l 1xa0
EndSplineSet
EndChar

StartChar: zero
Encoding: 48 48 47
Width: 566
Flags: MW
HStem: -13 14<239 327 239 355.5> 620 14<239 327>
VStem: 44 88<218 402> 434 88<219 403 219 408>
LayerCount: 2
Fore
SplineSet
283 634 m 0
 428 634 522 495 522 311 c 0
 522 127 428 -13 283 -13 c 0
 138 -13 44 126 44 310 c 0
 44 494 138 634 283 634 c 0
283 1 m 0
 371 1 434 114 434 310 c 0
 434 506 371 620 283 620 c 0
 195 620 132 507 132 311 c 0
 132 115 195 1 283 1 c 0
EndSplineSet
EndChar

StartChar: one
Encoding: 49 49 48
Width: 413
Flags: MW
HStem: 0 10
VStem: 172 80<24 559>
LayerCount: 2
Fore
SplineSet
254 624 m 1
 253 605 252 577 252 559 c 2
 252 24 l 2
 252 17 255 14 264 13 c 0
 289 11 323 10 347 10 c 1
 349 8 l 1
 349 -1 l 1
 307 0 255 0 212 0 c 0
 169 0 117 0 75 -1 c 1
 75 8 l 1
 77 10 l 1
 101 10 135 11 160 13 c 0
 169 14 172 17 172 24 c 2
 172 574 l 1
 70 529 l 1
 67 530 l 1
 65 536 l 1
 67 539 l 1
 129 566 196 598 246 626 c 1
 252 626 l 1
 254 624 l 1
EndSplineSet
EndChar

StartChar: two
Encoding: 50 50 49
Width: 501
Flags: MW
HStem: 1 56<142.5 213.5> 620 14<205.5 259>
VStem: 67 10<411 429 411 433.5> 338 88<452.5 518> 431 10<192 204>
LayerCount: 2
Fore
SplineSet
234 634 m 0
 355 634 426 577 426 488 c 0xf0
 426 417 370 355 292 280 c 0
 219 209 126 113 79 57 c 1
 231 57 l 2
 297 57 323 59 350 61 c 0
 403 65 422 75 425 99 c 0
 429 125 431 180 431 204 c 1
 433 206 l 1
 441 206 l 1
 441 84 442 34 445 1 c 1
 443 -1 l 1xe8
 355 1 249 1 178 1 c 0
 107 1 29 1 -1 -1 c 1
 -2 2 l 1
 38 39 67 67 115 120 c 0
 264 281 338 373 338 474 c 0
 338 562 299 620 219 620 c 0
 141 620 101 569 87 510 c 0
 81 485 77 447 77 411 c 1
 75 409 l 1
 67 409 l 1
 67 458 66 545 63 578 c 1
 65 580 l 1
 124 616 177 634 234 634 c 0
EndSplineSet
EndChar

StartChar: three
Encoding: 51 51 50
Width: 509
Flags: MW
HStem: -13 14<180.5 260 180 274.5> 319 12<195 199 195 205> 620 14<217.5 269>
VStem: 38 10<191.5 210 191.5 212> 77 10<411 429 411 433.5> 352 88<440.5 510.5> 370 88<112 198.5>
LayerCount: 2
Fore
SplineSet
205 331 m 2xec
 286 331 352 375 352 470 c 0
 352 551 309 620 229 620 c 0
 151 620 111 569 97 510 c 0
 91 485 87 447 87 411 c 1
 85 409 l 1
 77 409 l 1
 77 458 76 545 73 578 c 1
 75 580 l 1
 134 616 189 634 246 634 c 0
 354 634 440 583 440 486 c 0xec
 440 395 348 340 266 328 c 1
 372 328 458 268 458 173 c 0
 458 51 340 -13 209 -13 c 0
 152 -13 87 2 36 34 c 1
 34 36 l 1
 37 69 38 163 38 212 c 1
 46 212 l 1
 48 210 l 1
 48 173 52 136 58 111 c 0
 72 52 140 1 220 1 c 0
 300 1 370 61 370 157 c 0xfa
 370 240 313 319 199 319 c 2
 195 319 l 1
 193 321 l 1
 193 329 l 1
 195 331 l 1
 205 331 l 2xec
EndSplineSet
EndChar

StartChar: four
Encoding: 52 52 56
Width: 553
Flags: MW
HStem: 0 10 162 13
VStem: 327 80<24 163 175 519 519 519>
LayerCount: 2
Fore
SplineSet
519 200 m 1
 526 200 l 1
 524 186 524 176 524 165 c 1
 522 163 l 1
 407 163 l 1
 407 24 l 2
 407 17 410 14 419 13 c 0
 444 11 478 10 502 10 c 1
 504 8 l 1
 504 -1 l 1
 462 0 410 0 367 0 c 0
 324 0 272 0 230 -1 c 1
 230 8 l 1
 232 10 l 1
 256 10 290 11 315 13 c 0
 324 14 327 17 327 24 c 2
 327 163 l 1
 19 161 l 1
 18 164 l 1
 127 294 314 526 405 647 c 1
 409 647 l 1
 408 628 407 600 407 582 c 2
 407 175 l 1
 470 175 482 176 506 180 c 0
 513 181 516 186 517 198 c 1
 519 200 l 1
327 175 m 1
 327 519 l 1
 267 449 118 265 56 178 c 1
 137 175 251 175 327 175 c 1
EndSplineSet
EndChar

StartChar: five
Encoding: 53 53 51
Width: 492
Flags: MW
HStem: -13 14<181.5 251 173 273> 350 15<209 249> 564 56<254 270>
VStem: 36 10<191.5 210 191.5 212> 365 88<122.5 224>
LayerCount: 2
Fore
SplineSet
387 645 m 1
 394 645 l 1
 391 615 390 580 390 564 c 1
 388 562 l 1
 346 564 287 564 253 564 c 0
 218 564 159 563 129 562 c 1
 115 476 107 412 102 350 c 1
 141 359 195 365 223 365 c 0
 368 365 453 296 453 191 c 0
 453 54 336 -13 210 -13 c 0
 153 -13 85 2 34 34 c 1
 32 36 l 1
 35 69 36 163 36 212 c 1
 44 212 l 1
 46 210 l 1
 46 173 50 136 56 111 c 0
 70 52 133 1 213 1 c 0
 289 1 365 59 365 174 c 0
 365 274 302 350 196 350 c 0
 165 350 123 343 87 333 c 1
 84 334 l 1
 98 437 111 546 118 621 c 1
 120 623 l 1
 152 621 254 620 254 620 c 1
 332 620 350 621 374 625 c 0
 381 626 384 632 385 643 c 1
 387 645 l 1
EndSplineSet
EndChar

StartChar: six
Encoding: 54 54 57
Width: 523
Flags: MW
HStem: -13 14<234.5 309 234.5 326> 322 31<281 313>
VStem: 54 90<163.5 241.5 151 339> 401 88<127.5 210.5>
LayerCount: 2
Fore
SplineSet
144 278 m 1
 189 323 250 353 312 353 c 0
 421 353 489 280 489 189 c 0
 489 66 387 -13 265 -13 c 0
 140 -13 54 92 54 235 c 0
 54 443 236 608 410 637 c 1
 413 626 l 1
 271 593 153 436 144 278 c 1
201 304 m 0
 157 279 144 260 144 223 c 0
 144 79 193 1 276 1 c 0
 342 1 401 63 401 165 c 0
 401 256 359 322 267 322 c 0
 244 322 219 314 201 304 c 0
EndSplineSet
EndChar

StartChar: seven
Encoding: 55 55 67
Width: 476
Flags: MW
HStem: -3 21G<105 105> 565 56<244.5 267 267 315.5>
VStem: 53 10<418 430 418 476.5>
LayerCount: 2
Fore
SplineSet
188 -1 m 1
 105 -3 l 1
 105 1 l 1
 107 3 l 1
 145 10 176 36 220 119 c 0
 247 170 308 297 434 565 c 1
 267 565 l 2
 201 565 171 563 144 561 c 0
 90 557 72 547 69 523 c 0
 65 496 63 442 63 418 c 1
 61 416 l 1
 53 416 l 1
 53 537 52 588 49 621 c 1
 51 623 l 1
 138 621 209 621 280 621 c 0
 351 621 457 621 487 623 c 1
 488 620 l 1
 406 478 260 165 190 1 c 1
 188 -1 l 1
EndSplineSet
EndChar

StartChar: eight
Encoding: 56 56 78
Width: 534
Flags: MW
HStem: -10 11<222.5 295.5 222.5 314.5> 620 14<238.5 299>
VStem: 46 61<121 192.5> 76 88<466.5 517> 388 64<456.5 519> 390 88<111 172>
LayerCount: 2
Fore
SplineSet
188 316 m 1xd8
 125 358 76 398 76 470 c 0
 76 564 165 634 272 634 c 0
 369 634 452 578 452 493 c 0xd8
 452 420 390 370 327 335 c 1
 423 286 478 247 478 164 c 0
 478 58 372 -10 257 -10 c 0
 137 -10 46 50 46 153 c 0xe4
 46 232 115 284 188 316 c 1xd8
313 342 m 1
 361 370 388 412 388 477 c 0
 388 561 333 620 265 620 c 0
 212 620 164 576 164 501 c 0
 164 432 217 392 313 342 c 1
202 310 m 1xe4
 139 276 107 236 107 171 c 0
 107 71 182 1 263 1 c 0
 328 1 390 46 390 132 c 0
 390 212 314 258 202 310 c 1xe4
EndSplineSet
EndChar

StartChar: nine
Encoding: 57 57 58
Width: 523
Flags: MW
HStem: -5 21G<110 110> 268 31<210 241.5> 620 14<214 288.5>
VStem: 34 88<410 493.5> 379 90<379.5 457.5 282 469.5>
LayerCount: 2
Fore
SplineSet
379 343 m 1
 334 298 272 268 211 268 c 0
 102 268 34 341 34 432 c 0
 34 555 136 634 258 634 c 0
 383 634 469 529 469 386 c 0
 469 178 287 13 113 -16 c 1
 110 -5 l 1
 252 28 370 184 379 343 c 1
322 317 m 0
 366 342 379 361 379 398 c 0
 379 541 330 620 247 620 c 0
 181 620 122 558 122 456 c 0
 122 364 164 299 256 299 c 0
 279 299 304 307 322 317 c 0
EndSplineSet
EndChar

StartChar: colon
Encoding: 58 58 66
Width: 202
Flags: MW
HStem: -13 100<87 115> 313 100<87 115>
VStem: 51 100<23 51 349 377>
LayerCount: 2
Fore
SplineSet
151 363 m 0
 151 335 129 313 101 313 c 0
 73 313 51 335 51 363 c 0
 51 391 73 413 101 413 c 0
 129 413 151 391 151 363 c 0
151 37 m 0
 151 9 129 -13 101 -13 c 0
 73 -13 51 9 51 37 c 0
 51 65 73 87 101 87 c 0
 129 87 151 65 151 37 c 0
EndSplineSet
EndChar

StartChar: semicolon
Encoding: 59 59 76
Width: 202
Flags: MW
HStem: -133 21G<69 69> -6 21G<67 85.5> -6 93<80 85.5> 313 100<87 115>
VStem: 51 100<349 377> 137 26<-27 -18.5>
LayerCount: 2
Fore
SplineSet
69 -133 m 1xd4
 106 -110 137 -71 137 -28 c 0
 137 -9 130 5 117 14 c 1
 105 0 93 -6 78 -6 c 0
 56 -6 39 11 39 38 c 0
 39 66 65 87 95 87 c 0
 133 87 163 50 163 6 c 0xb4
 163 -60 116 -115 73 -140 c 1
 69 -133 l 1xd4
151 363 m 0xd8
 151 335 129 313 101 313 c 0
 73 313 51 335 51 363 c 0
 51 391 73 413 101 413 c 0
 129 413 151 391 151 363 c 0xd8
EndSplineSet
EndChar

StartChar: less
Encoding: 60 60 69
Width: 566
Flags: MW
HStem: 1 21G<492 495 492 492>
VStem: 89 17<210 210 210 216 210 216>
LayerCount: 2
Fore
SplineSet
90 202 m 1
 89 204 l 1
 89 216 l 1
 90 218 l 1
 492 419 l 1
 495 419 l 1
 500 409 l 1
 499 407 l 1
 106 210 l 1
 499 13 l 1
 500 11 l 1
 495 1 l 1
 492 1 l 1
 90 202 l 1
EndSplineSet
EndChar

StartChar: equal
Encoding: 61 61 63
Width: 611
Flags: MW
HStem: 125 14<98 513 98 513> 281 14<98 513 98 513>
VStem: 96 419<127 137 127 137 283 293 127 293>
LayerCount: 2
Fore
SplineSet
96 137 m 1
 98 139 l 1
 513 139 l 1
 515 137 l 1
 515 127 l 1
 513 125 l 1
 98 125 l 1
 96 127 l 1
 96 137 l 1
96 293 m 1
 98 295 l 1
 513 295 l 1
 515 293 l 1
 515 283 l 1
 513 281 l 1
 98 281 l 1
 96 283 l 1
 96 293 l 1
EndSplineSet
EndChar

StartChar: greater
Encoding: 62 62 70
Width: 566
Flags: MW
HStem: 1 21G<71 74 71 71>
VStem: 460 17<210 210>
LayerCount: 2
Fore
SplineSet
476 202 m 1
 74 1 l 1
 71 1 l 1
 66 11 l 1
 67 13 l 1
 460 210 l 1
 67 407 l 1
 66 409 l 1
 71 419 l 1
 74 419 l 1
 476 218 l 1
 477 216 l 1
 477 204 l 1
 476 202 l 1
EndSplineSet
EndChar

StartChar: question
Encoding: 63 63 87
Width: 492
Flags: MW
HStem: -10 100<185 213> 656 14<198 261.5>
VStem: 53 8<449 473.5> 149 100<26 54> 185 16 347 64<518 557 472 575>
LayerCount: 2
Fore
SplineSet
249 40 m 0xf4
 249 12 227 -10 199 -10 c 0
 171 -10 149 12 149 40 c 0
 149 68 171 90 199 90 c 0
 227 90 249 68 249 40 c 0xf4
201 169 m 1xec
 199 167 l 1
 191 167 l 1
 189 169 l 1
 187 192 185 227 185 250 c 0
 185 330 213 368 284 424 c 0
 329 460 347 498 347 538 c 0
 347 612 297 656 226 656 c 0
 147 656 102 613 80 550 c 0
 71 526 66 492 63 451 c 1
 61 449 l 1
 53 449 l 1
 53 498 52 586 49 619 c 1
 50 622 l 1
 103 652 166 670 230 670 c 0
 334 670 411 601 411 513 c 0
 411 431 369 391 301 334 c 0
 235 278 218 258 206 213 c 0
 203 201 201 182 201 169 c 1xec
EndSplineSet
EndChar

StartChar: at
Encoding: 64 64 73
Width: 755
Flags: MW
HStem: -113 13<294.5 433> 52 43<284.5 364> 56 16<512.5 563.5> 369 14<399.5 438 399.5 443> 527 13<341.5 508>
VStem: 56 17<98.5 288> 225 70<142 193> 434 63 696 16<222 351>
LayerCount: 2
Fore
SplineSet
475 305 m 1xbf80
 482 331 461 369 425 369 c 0
 350 369 295 265 295 165 c 0
 295 119 318 95 348 95 c 0
 380 95 407 119 431 159 c 0xdf80
 438 171 449 196 464 257 c 2
 475 305 l 1xbf80
438 148 m 1
 407 98 358 52 307 52 c 0xdf80
 262 52 225 95 225 153 c 0
 225 233 259 281 310 332 c 0
 338 360 378 383 421 383 c 0
 455 383 474 361 483 339 c 1
 494 384 l 1
 496 386 l 1
 556 386 l 1
 557 383 l 1
 506 175 l 2
 490 108 493 72 532 72 c 0
 615 72 696 164 696 280 c 0
 696 422 584 527 432 527 c 0
 251 527 73 381 73 197 c 0
 73 0 208 -100 381 -100 c 0
 494 -100 578 -56 660 23 c 1
 663 23 l 1
 668 18 l 1
 668 15 l 1
 576 -72 490 -113 376 -113 c 0
 196 -113 56 -4 56 191 c 0
 56 385 237 540 438 540 c 0
 595 540 712 422 712 286 c 0
 712 152 620 56 507 56 c 0
 457 56 422 83 438 148 c 1
EndSplineSet
EndChar

StartChar: A
Encoding: 65 65 38
Width: 705
Flags: MW
HStem: 0 10 242 13<302 338.5 302 339.5>
VStem: -16 730<-1 8 -1 8>
LayerCount: 2
Fore
SplineSet
443 241 m 1
 391 242 362 242 317 242 c 0
 274 242 238 242 183 241 c 1
 148 157 l 2
 128 110 106 55 96 22 c 0
 94 15 98 14 107 13 c 0
 132 11 151 10 175 10 c 1
 177 8 l 1
 177 -1 l 1
 135 0 124 0 81 0 c 0
 38 0 26 0 -16 -1 c 1
 -16 8 l 1
 -14 10 l 1
 10 10 29 11 54 13 c 0
 63 14 67 16 72 26 c 0
 99 84 127 150 168 245 c 1
 346 672 l 1
 349 672 l 1
 621 26 l 2
 625 17 633 14 642 13 c 0
 665 10 688 10 712 10 c 1
 714 8 l 1
 714 -1 l 1
 672 0 629 0 586 0 c 0
 543 0 495 0 453 -1 c 1
 453 8 l 1
 455 10 l 1
 479 10 501 11 523 13 c 0
 532 14 534 17 532 23 c 2
 443 241 l 1
437 256 m 1
 314 552 l 1
 311 552 l 1
 188 256 l 1
 239 255 287 255 317 255 c 0
 360 255 400 255 437 256 c 1
EndSplineSet
EndChar

StartChar: B
Encoding: 66 66 45
Width: 573
Flags: MW
HStem: -1 13 0 10 326 14<196 299 299 303 196 299> 636 12
VStem: 116 80<25.5 30 30 326 340 616> 431 88<450 534.5> 438 88<126 201.5>
LayerCount: 2
Fore
SplineSet
335 335 m 1x7a
 456 325 526 274 526 180 c 0x7a
 526 72 425 -4 281 -1 c 0
 230 0 199 0 156 0 c 0
 116 0 61 0 19 -1 c 1
 19 8 l 1
 21 10 l 1
 45 10 79 11 104 13 c 0
 113 14 116 17 116 24 c 2
 116 624 l 2
 116 631 113 634 104 635 c 0
 79 637 45 638 21 638 c 1
 19 640 l 1
 19 649 l 1
 61 648 116 648 156 648 c 0
 198 648 246 648 325 649 c 0
 443 651 519 589 519 501 c 0x7c
 519 399 430 343 335 335 c 1x7a
210 633 m 0x7c
 200 632 196 627 196 616 c 2
 196 340 l 1
 299 340 l 2
 376 340 431 381 431 493 c 0
 431 576 381 636 299 636 c 0
 258 636 241 636 210 633 c 0x7c
290 12 m 0xba
 370 12 438 58 438 164 c 0
 438 239 398 326 303 326 c 2
 196 326 l 1
 196 30 l 2
 196 21 199 16 210 15 c 0
 237 13 253 12 290 12 c 0xba
EndSplineSet
EndChar

StartChar: C
Encoding: 67 67 30
Width: 700
Flags: MW
HStem: -13 14<322 444.5> 652 14<326.5 456.5 300.5 463>
VStem: 46 88<244.5 423.5> 622 8<179.5 204>
LayerCount: 2
Fore
SplineSet
393 -13 m 0
 214 -13 46 107 46 319 c 0
 46 528 196 666 405 666 c 0
 508 666 587 644 633 622 c 1
 634 619 l 1
 631 586 630 498 630 449 c 1
 622 449 l 1
 620 451 l 1
 617 492 612 526 603 550 c 0
 581 608 520 652 406 652 c 0
 247 652 134 541 134 344 c 0
 134 145 238 1 406 1 c 0
 520 1 581 45 603 103 c 0
 612 127 617 161 620 202 c 1
 622 204 l 1
 630 204 l 1
 630 155 631 67 634 34 c 1
 633 31 l 1
 577 6 496 -13 393 -13 c 0
EndSplineSet
EndChar

StartChar: D
Encoding: 68 68 29
Width: 732
Flags: MW
HStem: -1 13<311 311> 0 10 0 15 636 12
VStem: 116 80<25.5 30 30 616> 598 88<238.5 438.5>
LayerCount: 2
Fore
SplineSet
196 616 m 2x5c
 196 30 l 2
 196 21 199 16 210 15 c 0x3c
 237 13 273 12 310 12 c 0x9c
 459 12 598 117 598 346 c 0
 598 531 500 636 320 636 c 0
 279 636 241 636 210 633 c 0
 200 632 196 627 196 616 c 2x5c
156 648 m 0
 198 648 236 648 356 649 c 0
 539 650 686 569 686 359 c 0
 686 118 528 -5 311 -1 c 0
 256 0 199 0 156 0 c 0
 116 0 61 0 19 -1 c 1
 19 8 l 1
 21 10 l 1
 45 10 79 11 104 13 c 0
 113 14 116 17 116 24 c 2
 116 624 l 2
 116 631 113 634 104 635 c 0
 79 637 45 638 21 638 c 1
 19 640 l 1
 19 649 l 1
 61 648 116 648 156 648 c 0
EndSplineSet
EndChar

StartChar: E
Encoding: 69 69 23
Width: 572
Flags: MW
HStem: -3 21G<511 511> 0 12<134.5 242> 311 12<196 220.5> 636 12<134.5 242>
VStem: 116 80<24 27 27 311 323 621> 420 7 469 10<489 501> 499 10<147 159>
LayerCount: 2
Fore
SplineSet
156 648 m 0x7d
 248 648 392 648 481 651 c 1
 483 649 l 1
 480 616 479 536 479 487 c 1
 471 487 l 1
 469 489 l 1x7f
 469 513 465 547 460 572 c 0
 453 606 421 628 368 632 c 0
 341 634 275 636 209 636 c 0
 199 636 196 630 196 621 c 2
 196 323 l 1
 245 323 317 324 345 325 c 0
 380 326 392 336 401 351 c 0
 410 366 415 386 418 430 c 1
 420 432 l 1
 429 432 l 1
 427 394 427 351 427 317 c 0
 427 283 427 240 429 202 c 1
 420 202 l 1
 418 204 l 1
 415 248 410 268 401 283 c 0
 392 298 380 307 345 309 c 0
 317 310 245 311 196 311 c 1
 196 27 l 2
 196 18 199 12 209 12 c 0
 275 12 371 14 398 16 c 0x7d
 451 20 483 41 490 76 c 0
 495 101 499 135 499 159 c 1
 501 161 l 1
 509 161 l 1
 509 112 510 32 513 -1 c 1xbd
 511 -3 l 1
 422 0 248 0 156 0 c 0
 113 0 61 0 19 -1 c 1
 19 8 l 1
 21 10 l 1
 45 10 79 11 104 13 c 0
 113 14 116 17 116 24 c 2
 116 624 l 2
 116 631 113 634 104 635 c 0
 79 637 45 638 21 638 c 1
 19 640 l 1
 19 649 l 1
 61 648 113 648 156 648 c 0x7d
EndSplineSet
EndChar

StartChar: F
Encoding: 70 70 24
Width: 509
Flags: MW
HStem: 0 10 311 12<196 220.5> 636 12<134.5 242>
VStem: 116 80<24 311 323 621> 420 7 469 10<489 501>
LayerCount: 2
Fore
SplineSet
156 648 m 0
 248 648 392 648 481 651 c 1
 483 649 l 1
 480 616 479 536 479 487 c 1
 471 487 l 1
 469 489 l 1
 469 513 465 547 460 572 c 0
 453 606 421 628 368 632 c 0
 341 634 275 636 209 636 c 0
 199 636 196 630 196 621 c 2
 196 323 l 1
 245 323 317 324 345 325 c 0
 380 326 392 336 401 351 c 0
 410 366 415 386 418 430 c 1
 420 432 l 1
 429 432 l 1
 427 394 427 351 427 317 c 0
 427 283 427 240 429 202 c 1
 420 202 l 1
 418 204 l 1
 415 248 410 268 401 283 c 0
 392 298 380 307 345 309 c 0
 317 310 245 311 196 311 c 1
 196 24 l 2
 196 17 199 14 208 13 c 0
 233 11 267 10 291 10 c 1
 293 8 l 1
 293 -1 l 1
 251 0 199 0 156 0 c 0
 113 0 61 0 19 -1 c 1
 19 8 l 1
 21 10 l 1
 45 10 79 11 104 13 c 0
 113 14 116 17 116 24 c 2
 116 624 l 2
 116 631 113 634 104 635 c 0
 79 637 45 638 21 638 c 1
 19 640 l 1
 19 649 l 1
 61 648 113 648 156 648 c 0
EndSplineSet
EndChar

StartChar: G
Encoding: 71 71 33
Width: 723
Flags: MW
HStem: -13 17<334 434> 229 10 652 14<333.5 463.5 307.5 470>
VStem: 46 88<244.5 423.5> 554 80<43 214 43 216 43 219.5> 629 8<449 473.5>
LayerCount: 2
Fore
SplineSet
413 652 m 0xf8
 254 652 134 541 134 344 c 0
 134 145 247 4 421 4 c 0
 467 4 507 11 554 31 c 1
 554 216 l 2
 554 223 552 225 543 226 c 0
 518 228 474 229 429 229 c 1
 427 231 l 1
 427 240 l 1
 469 239 551 239 594 239 c 0
 622 239 639 239 681 240 c 1
 681 231 l 1
 679 229 l 1
 665 229 653 228 645 226 c 0
 636 224 634 221 634 214 c 2
 634 43 l 1
 632 40 l 1xf8
 543 4 479 -13 389 -13 c 0
 210 -13 46 113 46 319 c 0
 46 528 203 666 412 666 c 0
 515 666 594 644 640 622 c 1
 641 619 l 1
 638 586 637 498 637 449 c 1
 629 449 l 1
 627 451 l 1
 624 492 619 526 610 550 c 0xf4
 588 608 527 652 413 652 c 0xf8
EndSplineSet
EndChar

StartChar: H
Encoding: 72 72 21
Width: 752
Flags: MW
HStem: 0 10 323 11<348 404> 638 10
VStem: 116 80<24 321 336 624> 556 80<24 321 321 321 336 624>
LayerCount: 2
Fore
SplineSet
196 336 m 1
 256 334 320 334 376 334 c 0
 432 334 496 334 556 336 c 1
 556 624 l 2
 556 631 553 634 544 635 c 0
 519 637 485 638 461 638 c 1
 459 640 l 1
 459 649 l 1
 501 648 553 648 596 648 c 0
 639 648 691 648 733 649 c 1
 733 640 l 1
 731 638 l 1
 707 638 673 637 648 635 c 0
 639 634 636 631 636 624 c 2
 636 24 l 2
 636 17 639 14 648 13 c 0
 673 11 707 10 731 10 c 1
 733 8 l 1
 733 -1 l 1
 691 0 639 0 596 0 c 0
 553 0 501 0 459 -1 c 1
 459 8 l 1
 461 10 l 1
 485 10 519 11 544 13 c 0
 553 14 556 17 556 24 c 2
 556 321 l 1
 496 323 432 323 376 323 c 0
 320 323 256 323 196 321 c 1
 196 24 l 2
 196 17 199 14 208 13 c 0
 233 11 267 10 291 10 c 1
 293 8 l 1
 293 -1 l 1
 251 0 199 0 156 0 c 0
 113 0 61 0 19 -1 c 1
 19 8 l 1
 21 10 l 1
 45 10 79 11 104 13 c 0
 113 14 116 17 116 24 c 2
 116 624 l 2
 116 631 113 634 104 635 c 0
 79 637 45 638 21 638 c 1
 19 640 l 1
 19 649 l 1
 61 648 113 648 156 648 c 0
 199 648 251 648 293 649 c 1
 293 640 l 1
 291 638 l 1
 267 638 233 637 208 635 c 0
 199 634 196 631 196 624 c 2
 196 336 l 1
EndSplineSet
EndChar

StartChar: I
Encoding: 73 73 20
Width: 312
Flags: MW
HStem: 0 10 638 10
VStem: 116 80<24 624>
LayerCount: 2
Fore
SplineSet
116 624 m 2
 116 631 113 634 104 635 c 0
 79 637 45 638 21 638 c 1
 19 640 l 1
 19 649 l 1
 61 648 113 648 156 648 c 0
 199 648 251 648 293 649 c 1
 293 640 l 1
 291 638 l 1
 267 638 233 637 208 635 c 0
 199 634 196 631 196 624 c 2
 196 24 l 2
 196 17 199 14 208 13 c 0
 233 11 267 10 291 10 c 1
 293 8 l 1
 293 -1 l 1
 251 0 199 0 156 0 c 0
 113 0 61 0 19 -1 c 1
 19 8 l 1
 21 10 l 1
 45 10 79 11 104 13 c 0
 113 14 116 17 116 24 c 2
 116 624 l 2
EndSplineSet
EndChar

StartChar: J
Encoding: 74 74 53
Width: 510
Flags: MW
HStem: -18 14<178 254.5 172.5 266> 638 10
VStem: 47 8<174.5 199> 341 80<179 189 189 624>
LayerCount: 2
Fore
SplineSet
206 -4 m 0
 303 -4 341 61 341 179 c 2
 341 624 l 2
 341 631 338 634 329 635 c 0
 304 637 270 638 246 638 c 1
 244 640 l 1
 244 649 l 1
 286 648 338 648 381 648 c 0
 424 648 476 648 518 649 c 1
 518 640 l 1
 516 638 l 1
 492 638 458 637 433 635 c 0
 424 634 421 631 421 624 c 2
 421 189 l 2
 421 53 326 -18 206 -18 c 0
 150 -18 87 -3 44 23 c 1
 43 26 l 1
 46 59 47 150 47 199 c 1
 55 199 l 1
 57 197 l 1
 60 156 66 122 74 98 c 0
 93 40 139 -4 206 -4 c 0
EndSplineSet
EndChar

StartChar: K
Encoding: 75 75 43
Width: 589
Flags: MW
HStem: 0 10<649 659> 309 14<196 200 196 201> 638 10
VStem: 116 80<24 309 323 624>
LayerCount: 2
Fore
SplineSet
196 24 m 2
 196 17 199 14 208 13 c 0
 233 11 267 10 291 10 c 1
 293 8 l 1
 293 -1 l 1
 251 0 199 0 156 0 c 0
 113 0 61 0 19 -1 c 1
 19 8 l 1
 21 10 l 1
 45 10 79 11 104 13 c 0
 113 14 116 17 116 24 c 2
 116 624 l 2
 116 631 113 634 104 635 c 0
 79 637 45 638 21 638 c 1
 19 640 l 1
 19 649 l 1
 61 648 113 648 156 648 c 0
 199 648 251 648 293 649 c 1
 293 640 l 1
 291 638 l 1
 267 638 233 637 208 635 c 0
 199 634 196 631 196 624 c 2
 196 323 l 1
 201 323 l 1
 221 333 238 346 263 373 c 0
 419 537 465 591 491 625 c 0
 495 630 492 634 485 635 c 0
 471 637 447 638 423 638 c 1
 421 640 l 1
 421 649 l 1
 451 648 480 648 515 648 c 0
 550 648 565 648 595 649 c 1
 595 640 l 1
 593 638 l 1
 574 638 559 638 541 635 c 0
 530 633 524 631 516 623 c 0
 478 585 353 449 276 364 c 1
 346 278 475 127 562 32 c 0
 574 18 587 15 599 14 c 0
 625 11 639 10 659 10 c 1
 661 8 l 1
 661 0 l 1
 631 0 529 0 474 -2 c 1
 472 0 l 1
 406 85 291 222 234 286 c 0
 222 299 213 306 200 309 c 1
 196 309 l 1
 196 24 l 2
EndSplineSet
EndChar

StartChar: L
Encoding: 76 76 22
Width: 559
Flags: MW
HStem: -3 21G<511 511> 0 12<134.5 242> 638 10
VStem: 116 80<24 27 27 624> 499 10<147 159>
LayerCount: 2
Fore
SplineSet
156 0 m 0x78
 113 0 61 0 19 -1 c 1
 19 8 l 1
 21 10 l 1
 45 10 79 11 104 13 c 0
 113 14 116 17 116 24 c 2
 116 624 l 2
 116 631 113 634 104 635 c 0
 79 637 45 638 21 638 c 1
 19 640 l 1
 19 649 l 1
 61 648 113 648 156 648 c 0
 199 648 251 648 293 649 c 1
 293 640 l 1
 291 638 l 1
 267 638 233 637 208 635 c 0
 199 634 196 631 196 624 c 2
 196 27 l 2
 196 18 199 12 209 12 c 0
 275 12 371 14 398 16 c 0x78
 451 20 483 41 490 76 c 0
 495 101 499 135 499 159 c 1
 501 161 l 1
 509 161 l 1
 509 112 510 32 513 -1 c 1xb8
 511 -3 l 1
 422 0 248 0 156 0 c 0x78
EndSplineSet
EndChar

StartChar: M
Encoding: 77 77 36
Width: 868
Flags: MW
HStem: 0 10 638 10
VStem: 106 16<248 565> 665 80<24 591 591 591>
LayerCount: 2
Fore
SplineSet
106 578 m 2
 106 590 105 601 99 613 c 0
 91 629 81 633 65 635 c 0
 47 637 27 638 9 638 c 1
 7 640 l 1
 7 649 l 1
 49 648 101 648 144 648 c 2
 169 648 l 1
 173 645 l 1
 419 129 l 1
 422 129 l 1
 505 299 602 494 665 645 c 1
 669 648 l 1
 701 648 l 2
 744 648 807 648 849 649 c 1
 849 640 l 1
 847 638 l 1
 823 638 782 637 757 635 c 0
 748 634 745 631 745 624 c 2
 745 24 l 2
 745 17 748 14 757 13 c 0
 782 11 816 10 840 10 c 1
 842 8 l 1
 842 -1 l 1
 800 0 748 0 705 0 c 0
 662 0 610 0 568 -1 c 1
 568 8 l 1
 570 10 l 1
 594 10 628 11 653 13 c 0
 662 14 665 17 665 24 c 2
 665 591 l 1
 613 487 475 203 389 15 c 1
 386 15 l 1
 122 565 l 1
 122 248 l 2
 122 142 122 83 125 24 c 0
 125 17 129 14 138 13 c 0
 163 11 193 10 217 10 c 1
 219 8 l 1
 219 -1 l 1
 177 0 142 0 114 0 c 0
 86 0 51 0 9 -1 c 1
 9 8 l 1
 11 10 l 1
 35 10 65 11 90 13 c 0
 99 14 103 17 103 24 c 0
 105 83 106 142 106 248 c 2
 106 578 l 2
EndSplineSet
EndChar

StartChar: N
Encoding: 78 78 42
Width: 741
Flags: MW
HStem: -24 21G<628 631 628 628> 0 10 638 10
VStem: 128 16<248 562> 615 16<128 400 -24 453>
LayerCount: 2
Fore
SplineSet
128 570 m 2
 128 579 121 600 107 614 c 0
 96 625 83 633 63 635 c 0
 39 637 28 638 4 638 c 1
 2 640 l 1
 2 649 l 1
 44 648 104 648 147 648 c 2
 188 648 l 1
 612 128 l 1
 615 128 l 1
 615 400 l 2
 615 506 614 565 612 624 c 0
 612 631 608 634 599 635 c 0
 574 637 544 638 520 638 c 1
 518 640 l 1
 518 649 l 1
 560 648 595 648 623 648 c 0
 651 648 686 648 728 649 c 1
 728 640 l 1
 726 638 l 1
 702 638 672 637 647 635 c 0
 638 634 634 631 634 624 c 0
 631 565 631 506 631 400 c 2
 631 -24 l 1
 628 -24 l 1xb8
 147 562 l 1
 144 562 l 1
 144 248 l 2
 144 142 144 83 147 24 c 0
 147 17 151 14 160 13 c 0
 185 11 215 10 239 10 c 1
 241 8 l 1
 241 -1 l 1
 199 0 164 0 136 0 c 0
 108 0 73 0 31 -1 c 1
 31 8 l 1
 33 10 l 1
 57 10 87 11 112 13 c 0
 121 14 125 17 125 24 c 0
 127 83 128 142 128 248 c 2
 128 570 l 2
EndSplineSet
EndChar

StartChar: O
Encoding: 79 79 37
Width: 791
Flags: MW
HStem: -13 14<327.5 471 327.5 487.5> 656 14<319.5 459>
VStem: 46 93<234.5 425.5> 652 93<231 427>
LayerCount: 2
Fore
SplineSet
393 670 m 0
 595 670 745 530 745 332 c 0
 745 130 582 -13 393 -13 c 0
 196 -13 46 116 46 325 c 0
 46 526 208 670 393 670 c 0
405 1 m 0
 537 1 652 113 652 314 c 0
 652 540 534 656 384 656 c 0
 255 656 139 540 139 342 c 0
 139 127 250 1 405 1 c 0
EndSplineSet
EndChar

StartChar: P
Encoding: 80 80 34
Width: 512
Flags: MW
HStem: 0 10 308 14<196 280 280 281 196 280> 636 12
VStem: 116 80<24 308 322 616> 418 88<433 523>
LayerCount: 2
Fore
SplineSet
281 308 m 2
 196 308 l 1
 196 24 l 2
 196 17 199 14 208 13 c 0
 233 11 267 10 291 10 c 1
 293 8 l 1
 293 -1 l 1
 251 0 199 0 156 0 c 0
 113 0 61 0 19 -1 c 1
 19 8 l 1
 21 10 l 1
 45 10 79 11 104 13 c 0
 113 14 116 17 116 24 c 2
 116 624 l 2
 116 631 113 634 104 635 c 0
 79 637 45 638 21 638 c 1
 19 640 l 1
 19 649 l 1
 61 648 116 648 156 648 c 0
 198 648 176 647 296 649 c 1
 419 650 506 596 506 488 c 0
 506 378 425 308 281 308 c 2
196 616 m 2
 196 322 l 1
 280 322 l 2
 376 322 418 388 418 476 c 0
 418 570 383 636 290 636 c 0
 260 636 241 636 210 633 c 0
 200 632 196 627 196 616 c 2
EndSplineSet
EndChar

StartChar: Q
Encoding: 81 81 100
Width: 791
Flags: MW
HStem: -171 21 -9 10<430 462.5> 656 14<319.5 459>
VStem: 46 93<234.5 425.5> 652 93<240.5 427>
LayerCount: 2
Fore
SplineSet
635 -150 m 0
 663 -150 698 -139 725 -125 c 1
 727 -126 l 1
 730 -134 l 1
 680 -158 629 -171 559 -171 c 0
 510 -171 487 -153 472 -121 c 0
 452 -80 436 -52 420 -34 c 0
 410 -23 392 -14 364 -12 c 0
 220 -4 46 94 46 325 c 0
 46 526 208 670 393 670 c 0
 595 670 745 530 745 332 c 0
 745 149 610 7 430 -9 c 1
 495 -9 508 -21 520 -40 c 0
 541 -75 551 -89 575 -118 c 0
 592 -139 612 -150 635 -150 c 0
139 342 m 0
 139 127 250 1 405 1 c 0
 537 1 652 113 652 314 c 0
 652 540 534 656 384 656 c 0
 255 656 139 540 139 342 c 0
EndSplineSet
EndChar

StartChar: R
Encoding: 82 82 35
Width: 599
Flags: MW
HStem: -2 13 0 10 315 14<196 247 196 280> 636 12
VStem: 116 80<24 315 329 616> 418 88<437.5 523>
LayerCount: 2
Fore
SplineSet
196 616 m 2x7c
 196 329 l 1
 280 329 l 2
 376 329 418 388 418 476 c 0
 418 570 383 636 290 636 c 0
 260 636 241 636 210 633 c 0
 200 632 196 627 196 616 c 2x7c
400 73 m 0
 381 130 360 188 338 242 c 0
 315 298 295 315 247 315 c 2
 196 315 l 1
 196 24 l 2
 196 17 199 14 208 13 c 0
 233 11 267 10 291 10 c 1
 293 8 l 1
 293 -1 l 1
 251 0 199 0 156 0 c 0
 113 0 61 0 19 -1 c 1
 19 8 l 1
 21 10 l 1
 45 10 79 11 104 13 c 0
 113 14 116 17 116 24 c 2x7c
 116 624 l 2
 116 631 113 634 104 635 c 0
 79 637 45 638 21 638 c 1
 19 640 l 1
 19 649 l 1
 61 648 116 648 156 648 c 0
 198 648 176 647 296 649 c 1
 419 650 506 596 506 488 c 0
 506 387 412 324 316 320 c 1
 387 317 411 290 430 239 c 0
 449 187 479 119 515 47 c 1
 528 25 545 16 563 14 c 0xbc
 588 12 594 11 618 11 c 1
 620 9 l 1
 620 0 l 1
 578 1 530 0 490 -2 c 0
 439 -4 420 12 400 73 c 0
EndSplineSet
EndChar

StartChar: S
Encoding: 83 83 41
Width: 533
Flags: MW
HStem: -13 14<208 303 205 307.5> 652 14<233 306.5 215.5 310.5>
VStem: 50 8<179.5 204> 69 62<498.5 541.5> 411 64<124.5 181.5> 439 8<449 473.5>
LayerCount: 2
Fore
SplineSet
271 652 m 0xd8
 195 652 131 620 131 544 c 0xd8
 131 453 173 419 280 383 c 0
 419 336 475 281 475 189 c 0
 475 60 368 -13 247 -13 c 0
 169 -13 100 3 47 31 c 1
 46 34 l 1
 49 67 50 155 50 204 c 1
 58 204 l 1
 60 202 l 1
 63 161 68 127 77 103 c 0
 99 45 163 1 247 1 c 0
 359 1 411 62 411 137 c 0xf8
 411 226 358 255 225 305 c 0
 130 341 69 391 69 491 c 0
 69 592 161 666 270 666 c 0
 343 666 397 650 450 622 c 1
 451 619 l 1
 448 586 447 498 447 449 c 1
 439 449 l 1
 437 451 l 1
 434 492 429 526 420 550 c 0xd4
 398 608 350 652 271 652 c 0xd8
EndSplineSet
EndChar

StartChar: T
Encoding: 84 84 28
Width: 608
Flags: MW
HStem: 0 10 636 12<218 350 258 390>
VStem: 20 10<489 501 489 511.5> 264 80<24 621> 578 10<489 501>
CounterMasks: 1 38
LayerCount: 2
Fore
SplineSet
251 636 m 0
 185 636 158 635 131 633 c 0
 77 629 46 606 39 572 c 0
 34 547 30 513 30 489 c 1
 28 487 l 1
 20 487 l 1
 20 536 19 616 16 649 c 1
 18 651 l 1
 107 648 212 648 304 648 c 0
 396 648 501 648 590 651 c 1
 592 649 l 1
 589 616 588 536 588 487 c 1
 580 487 l 1
 578 489 l 1
 578 513 574 547 569 572 c 0
 562 606 530 629 477 633 c 0
 450 635 423 636 357 636 c 0
 347 636 344 630 344 621 c 2
 344 24 l 2
 344 17 347 14 356 13 c 0
 381 11 415 10 439 10 c 1
 441 8 l 1
 441 -1 l 1
 399 0 347 0 304 0 c 0
 261 0 209 0 167 -1 c 1
 167 8 l 1
 169 10 l 1
 193 10 227 11 252 13 c 0
 261 14 264 17 264 24 c 2
 264 621 l 2
 264 630 260 636 251 636 c 0
EndSplineSet
EndChar

StartChar: U
Encoding: 85 85 32
Width: 672
Flags: MW
HStem: -15 21<331.5 406> 638 10
VStem: 108 80<191 624> 572 16<205 211 211 400>
LayerCount: 2
Fore
SplineSet
580 648 m 0
 608 648 643 648 685 649 c 1
 685 640 l 1
 683 638 l 1
 659 638 629 637 604 635 c 0
 595 634 591 631 591 624 c 0
 588 565 588 506 588 400 c 2
 588 211 l 2
 588 46 471 -15 341 -15 c 0
 206 -15 108 58 108 191 c 2
 108 624 l 2
 108 631 105 634 96 635 c 0
 71 637 37 638 13 638 c 1
 11 640 l 1
 11 649 l 1
 53 648 105 648 148 648 c 0
 191 648 243 648 285 649 c 1
 285 640 l 1
 283 638 l 1
 259 638 225 637 200 635 c 0
 191 634 188 631 188 624 c 2
 188 191 l 2
 188 64 281 6 382 6 c 0
 480 6 572 74 572 205 c 2
 572 400 l 2
 572 506 571 565 569 624 c 0
 569 631 565 634 556 635 c 0
 531 637 501 638 477 638 c 1
 475 640 l 1
 475 649 l 1
 517 648 552 648 580 648 c 0
EndSplineSet
EndChar

StartChar: V
Encoding: 86 86 39
Width: 696
Flags: MW
HStem: -24 21G<357 360 357 357> 638 10
VStem: -8 730<640 649 640 649>
LayerCount: 2
Fore
SplineSet
634 622 m 0
 607 563 579 498 538 403 c 1
 360 -24 l 1
 357 -24 l 1
 85 622 l 2
 81 631 73 634 64 635 c 0
 41 638 18 638 -6 638 c 1
 -8 640 l 1
 -8 649 l 1
 34 648 77 648 120 648 c 0
 163 648 211 648 253 649 c 1
 253 640 l 1
 251 638 l 1
 227 638 205 637 183 635 c 0
 174 634 172 631 174 625 c 2
 392 96 l 1
 395 96 l 1
 558 491 l 2
 578 538 600 593 610 626 c 0
 612 633 608 634 599 635 c 0
 574 637 555 638 531 638 c 1
 529 640 l 1
 529 649 l 1
 571 648 582 648 625 648 c 0
 668 648 680 648 722 649 c 1
 722 640 l 1
 720 638 l 1
 696 638 677 637 652 635 c 0
 643 634 639 632 634 622 c 0
EndSplineSet
EndChar

StartChar: W
Encoding: 87 87 40
Width: 1071
Flags: MW
HStem: -24 21G<374 377 374 374 715 718 715 715> 638 10<574 592>
VStem: -7 1100<640 649 640 649>
LayerCount: 2
Fore
SplineSet
991 648 m 0
 1034 648 1051 648 1093 649 c 1
 1093 640 l 1
 1091 638 l 1
 1067 638 1043 637 1018 635 c 0
 1009 634 1004 632 999 622 c 0
 972 563 943 498 902 403 c 2
 718 -24 l 1
 715 -24 l 1
 546 369 l 1
 377 -24 l 1
 374 -24 l 1
 96 622 l 1
 91 630 83 634 74 635 c 0
 49 637 19 638 -5 638 c 1
 -7 640 l 1
 -7 649 l 1
 35 648 88 648 131 648 c 0
 174 648 232 648 274 649 c 1
 274 640 l 1
 272 638 l 1
 248 638 219 637 194 635 c 0
 185 634 184 630 185 625 c 1
 409 93 l 1
 412 93 l 1
 539 388 l 1
 437 622 l 1
 432 630 424 634 415 635 c 0
 390 637 360 638 336 638 c 1
 334 640 l 1
 334 649 l 1
 376 648 429 648 472 648 c 2
 650 648 l 2
 693 648 710 648 752 649 c 1
 752 640 l 1
 750 638 l 1
 726 638 702 637 677 635 c 0
 668 634 662 632 657 622 c 0
 637 579 618 527 592 467 c 1
 750 93 l 1
 753 93 l 1
 922 491 l 2
 942 538 966 593 976 626 c 0
 978 633 973 634 964 635 c 0
 939 637 909 638 885 638 c 1
 883 640 l 1
 883 649 l 1
 925 648 948 648 991 648 c 0
535 636 m 0
 526 635 525 630 526 625 c 1
 586 485 l 1
 609 539 627 590 636 626 c 0
 638 633 633 635 624 636 c 0
 611 637 601 638 583 638 c 0
 565 638 548 637 535 636 c 0
EndSplineSet
EndChar

StartChar: X
Encoding: 88 88 44
Width: 694
Flags: MW
HStem: 0 10 638 10
VStem: -2 685<-1 8 -1 8>
LayerCount: 2
Fore
SplineSet
315 304 m 1
 233 189 l 2
 155 79 140 55 119 22 c 0
 115 16 121 14 130 13 c 0
 155 11 180 10 204 10 c 1
 206 8 l 1
 206 -1 l 1
 164 0 146 0 103 0 c 0
 60 0 40 0 -2 -1 c 1
 -2 8 l 1
 0 10 l 1
 24 10 46 11 71 13 c 0
 80 14 88 17 95 26 c 0
 138 82 178 139 223 202 c 2
 305 318 l 1
 116 622 l 2
 110 630 103 634 94 635 c 0
 69 637 50 638 26 638 c 1
 24 640 l 1
 24 649 l 1
 66 648 109 648 152 648 c 0
 195 648 242 648 284 649 c 1
 284 640 l 1
 282 638 l 1
 258 638 245 637 220 635 c 0
 211 634 208 631 211 625 c 2
 359 385 l 1
 414 463 l 2
 492 573 504 593 525 626 c 0
 529 632 522 634 513 635 c 0
 488 637 468 638 444 638 c 1
 442 640 l 1
 442 649 l 1
 484 648 497 648 540 648 c 0
 583 648 590 648 632 649 c 1
 632 640 l 1
 630 638 l 1
 606 638 597 637 572 635 c 0
 563 634 555 631 548 622 c 0
 505 566 469 513 424 450 c 2
 368 371 l 1
 586 26 l 2
 592 18 599 14 608 13 c 0
 633 11 657 10 681 10 c 1
 683 8 l 1
 683 -1 l 1
 641 0 593 0 550 0 c 0
 507 0 454 0 412 -1 c 1
 412 8 l 1
 414 10 l 1
 438 10 455 11 480 13 c 0
 489 14 492 17 489 23 c 2
 315 304 l 1
EndSplineSet
EndChar

StartChar: Y
Encoding: 89 89 46
Width: 654
Flags: MW
HStem: 0 10 638 10
VStem: 296 80<24 312>
LayerCount: 2
Fore
SplineSet
375 367 m 1
 441 462 l 1
 519 572 533 593 554 626 c 0
 558 632 550 634 541 635 c 0
 516 637 496 638 472 638 c 1
 470 640 l 1
 470 649 l 1
 512 648 525 648 568 648 c 0
 611 648 618 648 660 649 c 1
 660 640 l 1
 658 638 l 1
 634 638 618 637 601 635 c 0
 592 634 585 631 578 622 c 0
 535 566 497 516 453 452 c 2
 396 370 l 1
 380 344 376 336 376 312 c 2
 376 24 l 2
 376 17 379 14 388 13 c 0
 413 11 447 10 471 10 c 1
 473 8 l 1
 473 -1 l 1
 431 0 379 0 336 0 c 0
 293 0 241 0 199 -1 c 1
 199 8 l 1
 201 10 l 1
 225 10 259 11 284 13 c 0
 293 14 296 17 296 24 c 2
 296 312 l 2
 296 333 290 350 276 370 c 2
 100 622 l 2
 94 630 88 634 79 635 c 0
 54 637 35 638 11 638 c 1
 9 640 l 1
 9 649 l 1
 51 648 94 648 137 648 c 0
 180 648 227 648 269 649 c 1
 269 640 l 1
 267 638 l 1
 243 638 230 637 205 635 c 0
 196 634 191 631 195 625 c 2
 375 367 l 1
EndSplineSet
EndChar

StartChar: Z
Encoding: 90 90 54
Width: 639
Flags: MW
HStem: 0 12<216 309> 636 12<310 437.5 350 437.5 350 482>
VStem: 83 10<489 501 489 511.5> 586 10<147 159>
LayerCount: 2
Fore
SplineSet
396 648 m 0
 479 648 534 649 585 651 c 1
 586 648 l 1
 127 12 l 1
 316 12 l 2
 382 12 458 14 485 16 c 0
 538 20 570 41 577 76 c 0
 582 101 586 135 586 159 c 1
 588 161 l 1
 596 161 l 1
 596 112 597 32 600 -1 c 1
 598 -3 l 1
 509 0 355 0 263 0 c 0
 169 0 98 -1 24 -3 c 1
 23 0 l 1
 482 636 l 1
 343 636 l 2
 277 636 221 634 194 632 c 0
 140 628 109 606 102 572 c 0
 97 547 93 513 93 489 c 1
 91 487 l 1
 83 487 l 1
 83 536 82 616 79 649 c 1
 81 651 l 1
 170 648 304 648 396 648 c 0
EndSplineSet
EndChar

StartChar: bracketleft
Encoding: 91 91 60
Width: 328
Flags: MW
HStem: -88 14<306 317 306 317> 688 14<306 317>
VStem: 130 56<-45.5 -31 -31 645>
LayerCount: 2
Fore
SplineSet
130 702 m 1
 132 704 l 1
 192 702 269 702 317 702 c 1
 319 700 l 1
 319 690 l 1
 317 688 l 1
 295 688 246 687 221 686 c 0
 198 685 186 674 186 645 c 2
 186 -31 l 2
 186 -60 198 -71 221 -72 c 0
 246 -74 295 -74 317 -74 c 1
 319 -76 l 1
 319 -86 l 1
 317 -88 l 1
 269 -88 192 -89 132 -90 c 1
 130 -88 l 1
 130 702 l 1
EndSplineSet
EndChar

StartChar: backslash
Encoding: 92 92 91
Width: 364
Flags: MW
HStem: -93 21G<352 352> -87 21G<365 365>
VStem: -1 366
LayerCount: 2
Fore
SplineSet
352 -93 m 1xa0
 -1 695 l 1
 12 701 l 1
 365 -87 l 1x60
 352 -93 l 1xa0
EndSplineSet
EndChar

StartChar: bracketright
Encoding: 93 93 61
Width: 328
Flags: MW
HStem: -88 14<11 22 11 35> 688 14<11 22>
VStem: 142 56<-31 645 645 659.5>
LayerCount: 2
Fore
SplineSet
198 702 m 1
 198 -88 l 1
 196 -90 l 1
 136 -89 59 -88 11 -88 c 1
 9 -86 l 1
 9 -76 l 1
 11 -74 l 1
 33 -74 82 -74 107 -72 c 0
 129 -71 142 -60 142 -31 c 2
 142 645 l 2
 142 674 129 685 107 686 c 0
 82 687 33 688 11 688 c 1
 9 690 l 1
 9 700 l 1
 11 702 l 1
 59 702 136 702 196 704 c 1
 198 702 l 1
EndSplineSet
EndChar

StartChar: asciicircum
Encoding: 94 94 97
Width: 560
Flags: MW
HStem: 621 17<280 280>
VStem: 71 418<232 235 232 235>
LayerCount: 2
Fore
SplineSet
288 637 m 1
 489 235 l 1
 489 232 l 1
 479 227 l 1
 477 228 l 1
 280 621 l 1
 83 228 l 1
 81 227 l 1
 71 232 l 1
 71 235 l 1
 272 637 l 1
 274 638 l 1
 286 638 l 1
 288 637 l 1
EndSplineSet
EndChar

StartChar: underscore
Encoding: 95 95 59
Width: 508
Flags: MW
HStem: -75 14<18 490 18 490>
VStem: 16 476<-73 -63 -73 -63>
LayerCount: 2
Fore
SplineSet
16 -63 m 1
 18 -61 l 1
 490 -61 l 1
 492 -63 l 1
 492 -73 l 1
 490 -75 l 1
 18 -75 l 1
 16 -73 l 1
 16 -63 l 1
EndSplineSet
EndChar

StartChar: grave
Encoding: 96 96 95
Width: 225
Flags: MW
HStem: 437 154<62 183>
VStem: 37 156<446 565>
LayerCount: 2
Fore
SplineSet
193 446 m 1
 183 437 l 1
 164 452 122 478 88 496 c 0
 54 513 37 532 37 555 c 0
 37 575 53 591 71 591 c 0
 93 591 113 576 133 541 c 0
 157 497 174 471 193 446 c 1
EndSplineSet
EndChar

StartChar: a
Encoding: 97 97 6
Width: 453
Flags: MW
HStem: -8 21G -8 36<122 208.5> 0 10<436 446 436 448> 395 13<198.5 236.5>
VStem: 46 88<93 124> 88 7<265 289> 284 74<-2 25 49.5 58 99 224 224 224 252 278 278 287>
LayerCount: 2
Fore
SplineSet
446 10 m 1x36
 448 8 l 1
 448 0 l 1
 418 0 339 0 284 -2 c 1
 282 0 l 1
 283 18 284 41 284 58 c 1x36
 256 32 237 20 208 6 c 0
 189 -3 171 -8 152 -8 c 0
 92 -8 46 29 46 98 c 0
 46 150 80 188 143 200 c 0x5a
 177 206 237 221 268 233 c 0
 278 237 284 242 284 252 c 2
 284 278 l 2
 284 354 268 395 205 395 c 0
 166 395 124 365 109 326 c 0
 104 313 100 292 97 267 c 1
 95 265 l 1
 88 265 l 1
 88 313 88 341 86 360 c 1
 87 364 l 1
 128 394 178 408 219 408 c 0
 307 408 358 365 358 287 c 2
 358 25 l 2x96
 358 17 361 13 368 13 c 0
 397 11 426 10 446 10 c 1x36
284 99 m 2x5a
 284 224 l 1
 265 216 243 210 197 198 c 0
 157 188 134 163 134 122 c 0
 134 64 154 28 196 28 c 0
 221 28 239 36 263 56 c 0
 273 64 284 77 284 99 c 2x5a
EndSplineSet
EndChar

StartChar: b
Encoding: 98 98 11
Width: 523
Flags: MW
HStem: -8 15<243 300.5 243 309> 366 42<289.5 307> 689 10<3 15>
VStem: 81 74<120.5 139 139 282 331 634> 401 81<146 233.5>
LayerCount: 2
Fore
SplineSet
155 331 m 1
 187 359 214 378 238 392 c 0
 258 403 278 408 301 408 c 0
 416 408 482 326 482 223 c 0
 482 69 373 -8 245 -8 c 0
 227 -8 201 -3 171 6 c 0
 156 10 145 12 132 14 c 1
 85 -9 l 1
 79 -7 l 1
 80 2 81 18 81 27 c 2
 81 674 l 2
 81 682 78 685 71 686 c 0
 52 688 27 689 3 689 c 1
 1 691 l 1
 1 699 l 1
 44 699 115 699 155 701 c 1
 157 699 l 1
 156 680 155 652 155 634 c 2
 155 331 l 1
155 282 m 2
 155 139 l 2
 155 102 159 77 167 60 c 0
 186 22 220 7 266 7 c 0
 335 7 401 69 401 185 c 0
 401 282 356 366 258 366 c 0
 236 366 215 358 191 341 c 0
 164 322 155 313 155 282 c 2
EndSplineSet
EndChar

StartChar: c
Encoding: 99 99 8
Width: 437
Flags: MW
HStem: -8 38<243.5 281> 395 13<217 287.5 200 288.5>
VStem: 41 81<159.5 258.5> 380 9<271 282>
LayerCount: 2
Fore
SplineSet
122 220 m 0
 122 99 195 30 292 30 c 0
 333 30 362 37 397 57 c 1
 400 57 l 1
 403 51 l 1
 363 19 314 -8 248 -8 c 0
 123 -8 41 74 41 195 c 0
 41 322 138 408 262 408 c 0
 313 408 363 399 391 385 c 1
 393 381 l 1
 391 354 389 301 389 269 c 1
 382 269 l 1
 380 271 l 1
 380 293 379 303 376 319 c 0
 366 370 321 395 256 395 c 0
 178 395 122 333 122 220 c 0
EndSplineSet
EndChar

StartChar: d
Encoding: 100 100 14
Width: 545
Flags: MW
HStem: -8 21G -8 42<216 233.5> 0 10<520 530 520 532> 393 15<222.5 280> 689 10<290 302>
VStem: 41 81<166.5 254> 368 74<-2 25 58 69 118 257 257 275 392 634>
LayerCount: 2
Fore
SplineSet
278 408 m 0x3e
 309 408 348 401 368 392 c 1
 368 674 l 2
 368 682 365 685 358 686 c 0
 339 688 314 689 290 689 c 1
 288 691 l 1
 288 699 l 1
 331 699 402 699 442 701 c 1
 444 699 l 1
 443 680 442 652 442 634 c 2
 442 25 l 2x9e
 442 17 445 13 452 13 c 0
 481 11 510 10 530 10 c 1
 532 8 l 1
 532 0 l 1
 502 0 423 0 368 -2 c 1
 366 0 l 1
 367 18 368 47 368 69 c 1x3e
 336 41 309 22 285 8 c 0
 265 -4 245 -8 222 -8 c 0x5e
 107 -8 41 74 41 177 c 0
 41 331 150 408 278 408 c 0x3e
368 118 m 2x5e
 368 257 l 2
 368 293 364 319 356 336 c 0
 337 374 303 393 257 393 c 0
 188 393 122 330 122 215 c 0
 122 118 167 34 265 34 c 0
 287 34 308 42 332 59 c 0
 359 78 368 87 368 118 c 2x5e
EndSplineSet
EndChar

StartChar: e
Encoding: 101 101 9
Width: 458
Flags: MW
HStem: -8 38<243.5 281> 211 15 395 13<198 269.5>
VStem: 41 78 339 73<235.5 282.5 235.5 283.5>
LayerCount: 2
Fore
SplineSet
41 195 m 0
 41 330 137 408 241 408 c 0
 361 408 412 325 412 240 c 0
 412 231 411 220 410 213 c 1
 408 211 l 1
 336 213 191 213 120 210 c 1
 125 101 195 30 292 30 c 0
 333 30 362 37 397 57 c 1
 400 57 l 1
 403 51 l 1
 363 19 314 -8 248 -8 c 0
 123 -8 41 74 41 195 c 0
332 226 m 0
 336 226 339 228 339 236 c 0
 339 331 302 395 237 395 c 0
 159 395 121 333 119 224 c 1
 165 222 271 224 332 226 c 0
EndSplineSet
EndChar

StartChar: f
Encoding: 102 102 12
Width: 319
Flags: MW
HStem: 0 10 388 12<36 116 36 116 34 116 190 299> 696 13<247.5 285.5>
VStem: 116 74<25 388 400 506 506 529.5> 343 9<550 560.5>
LayerCount: 2
Fore
SplineSet
116 506 m 2
 116 553 125 587 151 629 c 0
 184 681 223 709 272 709 c 0
 312 709 338 701 357 686 c 1
 358 682 l 1
 355 644 352 581 352 548 c 1
 345 548 l 1
 343 550 l 1
 343 571 340 598 336 620 c 0
 328 659 311 696 260 696 c 0
 233 696 207 677 198 649 c 0
 193 635 190 610 190 585 c 2
 190 400 l 1
 301 400 l 1
 301 390 l 1
 299 388 l 1
 190 388 l 1
 190 25 l 2
 190 17 193 14 200 13 c 0
 222 10 257 10 281 10 c 1
 283 8 l 1
 283 -1 l 1
 253 0 188 0 153 0 c 0
 118 0 73 0 43 -1 c 1
 43 8 l 1
 45 10 l 1
 69 10 84 10 106 13 c 0
 113 14 116 17 116 25 c 2
 116 388 l 1
 34 388 l 1
 34 398 l 1
 36 400 l 1
 116 400 l 1
 116 506 l 2
EndSplineSet
EndChar

StartChar: g
Encoding: 103 103 19
Width: 465
Flags: MW
HStem: -263 27<181 211.5> -30 21G<118 118> -13 66<161.5 279 211 251> 105 14<205.5 249 193 263.5> 375 12<333 442 333 333> 394 14<189 237 176 248.5>
VStem: -5 74 57 70<226.5 302.5> 312 70<212.5 284.5> 362 65<-89.5 -86>
LayerCount: 2
Fore
SplineSet
316 387 m 1xb980
 444 387 l 1
 444 377 l 1
 442 375 l 1
 333 375 l 1
 367 344 382 307 382 265 c 0xb980
 382 160 312 105 215 105 c 0
 196 105 164 113 143 122 c 1
 134 115 128 105 128 98 c 0
 128 70 153 53 211 53 c 2
 279 53 l 2xb940
 377 53 427 16 427 -65 c 0
 427 -114 385 -170 338 -207 c 0
 286 -249 248 -263 175 -263 c 0
 105 -263 14 -220 -5 -135 c 1
 -4 -132 l 1
 37 -98 77 -59 112 -21 c 1
 118 -27 l 1
 118 -30 l 1
 97 -51 85 -69 75 -89 c 0
 71 -96 70 -105 70 -114 c 0xda40
 70 -183 141 -236 221 -236 c 0
 299 -236 362 -192 362 -112 c 0
 362 -60 327 -13 251 -13 c 2
 196 -13 l 2
 127 -13 71 8 61 61 c 1
 62 64 l 1
 87 83 110 104 131 127 c 1
 93 147 57 189 57 252 c 0
 57 353 128 408 224 408 c 0xb540
 250 408 291 400 316 387 c 1xb980
217 394 m 0xb580
 161 394 127 356 127 276 c 0
 127 177 165 119 221 119 c 0
 277 119 312 167 312 243 c 0
 312 326 280 394 217 394 c 0xb580
EndSplineSet
EndChar

StartChar: h
Encoding: 104 104 3
Width: 551
Flags: MW
HStem: 0 10<531 541> 365 43<274 372> 689 10<29 41>
VStem: 107 74<25 280 331 634> 379 74<-2 25 65 254 254 268>
LayerCount: 2
Fore
SplineSet
181 331 m 1
 213 359 240 378 264 391 c 0
 284 402 306 408 328 408 c 0
 416 408 453 354 453 268 c 2
 453 25 l 2
 453 17 456 13 463 13 c 0
 492 11 521 10 541 10 c 1
 543 8 l 1
 543 0 l 1
 513 0 434 0 379 -2 c 1
 377 0 l 1
 378 18 379 43 379 65 c 2
 379 254 l 2
 379 325 347 365 286 365 c 0
 262 365 241 358 218 342 c 0
 193 325 181 313 181 280 c 2
 181 25 l 2
 181 17 184 14 191 13 c 0
 213 10 238 10 262 10 c 1
 264 8 l 1
 264 -1 l 1
 234 0 179 0 144 0 c 0
 109 0 54 0 24 -1 c 1
 24 8 l 1
 26 10 l 1
 50 10 75 10 97 13 c 0
 104 14 107 17 107 25 c 2
 107 674 l 2
 107 682 104 685 97 686 c 0
 78 688 53 689 29 689 c 1
 27 691 l 1
 27 699 l 1
 70 699 141 699 181 701 c 1
 183 699 l 1
 182 680 181 652 181 634 c 2
 181 331 l 1
EndSplineSet
EndChar

StartChar: i
Encoding: 105 105 15
Width: 288
Flags: MW
HStem: 0 10 390 10<34 46> 484 100<135 163>
VStem: 99 100<520 548> 112 74<25 335>
LayerCount: 2
Fore
SplineSet
199 534 m 0xf0
 199 506 177 484 149 484 c 0
 121 484 99 506 99 534 c 0
 99 562 121 584 149 584 c 0
 177 584 199 562 199 534 c 0xf0
186 335 m 2xc8
 186 25 l 2
 186 17 189 14 196 13 c 0
 218 10 243 10 267 10 c 1
 269 8 l 1
 269 -1 l 1
 239 0 184 0 149 0 c 0
 114 0 59 0 29 -1 c 1
 29 8 l 1
 31 10 l 1
 55 10 80 10 102 13 c 0
 109 14 112 17 112 25 c 2
 112 375 l 2
 112 383 109 386 102 387 c 0
 83 389 58 390 34 390 c 1
 32 392 l 1
 32 400 l 1
 75 400 146 400 186 402 c 1
 188 400 l 1
 187 381 186 353 186 335 c 2xc8
EndSplineSet
EndChar

StartChar: j
Encoding: 106 106 55
Width: 237
Flags: MW
HStem: -252 13<-9 28.5> 390 10<11 23> 484 100<112 140>
VStem: -73 9<-103.5 -93 -103.5 -91> 76 100<520 548> 89 74<-78 -49 -49 335>
LayerCount: 2
Fore
SplineSet
176 534 m 0xf8
 176 506 154 484 126 484 c 0
 98 484 76 506 76 534 c 0
 76 562 98 584 126 584 c 0
 154 584 176 562 176 534 c 0xf8
89 -128 m 2xd4
 89 375 l 2
 89 383 86 386 79 387 c 0
 60 389 35 390 11 390 c 1
 9 392 l 1
 9 400 l 1
 52 400 123 400 163 402 c 1
 165 400 l 1
 164 381 163 353 163 335 c 2
 163 -49 l 2
 163 -107 149 -146 122 -181 c 0
 84 -230 51 -252 6 -252 c 0
 -29 -252 -59 -244 -78 -229 c 1
 -79 -225 l 1
 -76 -187 -73 -124 -73 -91 c 1
 -66 -91 l 1
 -64 -93 l 1
 -64 -114 -61 -141 -57 -163 c 0
 -49 -202 -35 -239 17 -239 c 0
 44 -239 72 -221 81 -192 c 0
 85 -178 89 -153 89 -128 c 2xd4
EndSplineSet
EndChar

StartChar: k
Encoding: 107 107 18
Width: 489
Flags: MW
HStem: 0 10<521 531> 197 12<181 186 186 188 181 186> 390 10 689 10<29 41>
VStem: 107 74<25 197 209 634>
LayerCount: 2
Fore
SplineSet
347 376 m 2
 352 383 348 386 341 387 c 0
 321 389 299 390 275 390 c 1
 273 392 l 1
 273 401 l 1
 303 400 332 400 367 400 c 0
 402 400 417 400 447 401 c 1
 447 392 l 1
 445 390 l 1
 421 390 406 390 384 387 c 0
 376 386 370 382 360 370 c 2
 251 240 l 1
 282 202 375 98 435 32 c 0
 447 18 458 15 470 14 c 0
 496 11 511 10 531 10 c 1
 533 8 l 1
 533 0 l 1
 503 0 414 0 359 -2 c 1
 357 0 l 1
 324 48 265 125 210 186 c 0
 203 193 196 197 188 197 c 2
 181 197 l 1
 181 25 l 2
 181 17 184 14 191 13 c 0
 213 10 238 10 262 10 c 1
 264 8 l 1
 264 -1 l 1
 234 0 179 0 144 0 c 0
 109 0 54 0 24 -1 c 1
 24 8 l 1
 26 10 l 1
 50 10 75 10 97 13 c 0
 104 14 107 17 107 25 c 2
 107 674 l 2
 107 682 104 685 97 686 c 0
 78 688 53 689 29 689 c 1
 27 691 l 1
 27 699 l 1
 70 699 141 699 181 701 c 1
 183 699 l 1
 182 680 181 652 181 634 c 2
 181 209 l 1
 186 209 l 2
 200 209 215 216 251 259 c 2
 347 376 l 2
EndSplineSet
EndChar

StartChar: l
Encoding: 108 108 2
Width: 283
Flags: MW
HStem: 0 10 689 10<29 41>
VStem: 107 74<25 634>
LayerCount: 2
Fore
SplineSet
181 25 m 2
 181 17 184 14 191 13 c 0
 213 10 238 10 262 10 c 1
 264 8 l 1
 264 -1 l 1
 234 0 179 0 144 0 c 0
 109 0 54 0 24 -1 c 1
 24 8 l 1
 26 10 l 1
 50 10 75 10 97 13 c 0
 104 14 107 17 107 25 c 2
 107 674 l 2
 107 682 104 685 97 686 c 0
 78 688 53 689 29 689 c 1
 27 691 l 1
 27 699 l 1
 70 699 141 699 181 701 c 1
 183 699 l 1
 182 680 181 652 181 634 c 2
 181 25 l 2
EndSplineSet
EndChar

StartChar: m
Encoding: 109 109 4
Width: 828
Flags: MW
HStem: 0 10<536 546 808 818> 365 43<279 367.5> 390 10<34 46>
VStem: 112 74<25 280 331 340> 384 74<-2 25 65 254 254 280> 656 74<-2 25 65 254 254 268>
CounterMasks: 1 1c
LayerCount: 2
Fore
SplineSet
458 280 m 2xdc
 458 25 l 2
 458 17 461 13 468 13 c 0
 497 11 526 10 546 10 c 1
 548 8 l 1
 548 0 l 1
 518 0 439 0 384 -2 c 1
 382 0 l 1
 383 18 384 43 384 65 c 2
 384 254 l 2
 384 325 352 365 291 365 c 0
 267 365 246 358 223 342 c 0
 198 325 186 313 186 280 c 2xdc
 186 25 l 2
 186 17 189 14 196 13 c 0
 218 10 243 10 267 10 c 1
 269 8 l 1
 269 -1 l 1
 239 0 184 0 149 0 c 0
 114 0 59 0 29 -1 c 1
 29 8 l 1
 31 10 l 1
 55 10 80 10 102 13 c 0
 109 14 112 17 112 25 c 2
 112 375 l 2
 112 383 109 386 102 387 c 0
 83 389 58 390 34 390 c 1
 32 392 l 1
 32 400 l 1
 75 400 146 400 186 402 c 1
 188 400 l 1
 187 381 186 349 186 331 c 1xbc
 218 359 245 378 269 391 c 0
 289 402 311 408 333 408 c 0
 402 408 438 374 451 325 c 1
 482 354 517 378 541 391 c 0
 561 402 583 408 605 408 c 0
 693 408 730 354 730 268 c 2
 730 25 l 2
 730 17 733 13 740 13 c 0
 769 11 798 10 818 10 c 1
 820 8 l 1
 820 0 l 1
 790 0 711 0 656 -2 c 1
 654 0 l 1
 655 18 656 43 656 65 c 2
 656 254 l 2
 656 325 624 365 563 365 c 0
 539 365 518 358 495 342 c 0
 470 325 458 313 458 280 c 2xdc
EndSplineSet
EndChar

StartChar: n
Encoding: 110 110 1
Width: 556
Flags: MW
HStem: 0 10<536 546> 365 43<279 377> 390 10<34 46>
VStem: 112 74<25 280 331 340> 384 74<-2 25 65 254 254 268>
LayerCount: 2
Fore
SplineSet
186 331 m 1xb8
 218 359 245 378 269 391 c 0
 289 402 311 408 333 408 c 0
 421 408 458 354 458 268 c 2
 458 25 l 2
 458 17 461 13 468 13 c 0
 497 11 526 10 546 10 c 1
 548 8 l 1
 548 0 l 1
 518 0 439 0 384 -2 c 1
 382 0 l 1
 383 18 384 43 384 65 c 2
 384 254 l 2
 384 325 352 365 291 365 c 0
 267 365 246 358 223 342 c 0
 198 325 186 313 186 280 c 2xd8
 186 25 l 2
 186 17 189 14 196 13 c 0
 218 10 243 10 267 10 c 1
 269 8 l 1
 269 -1 l 1
 239 0 184 0 149 0 c 0
 114 0 59 0 29 -1 c 1
 29 8 l 1
 31 10 l 1
 55 10 80 10 102 13 c 0
 109 14 112 17 112 25 c 2
 112 375 l 2
 112 383 109 386 102 387 c 0
 83 389 58 390 34 390 c 1
 32 392 l 1
 32 400 l 1
 75 400 146 400 186 402 c 1
 188 400 l 1
 187 381 186 349 186 331 c 1xb8
EndSplineSet
EndChar

StartChar: o
Encoding: 111 111 5
Width: 505
Flags: MW
HStem: -8 15<215.5 295 215.5 307.5> 393 15<207 286.5>
VStem: 41 81<151 262.5> 383 81<138.5 249>
LayerCount: 2
Fore
SplineSet
464 205 m 0
 464 72 368 -8 247 -8 c 0
 119 -8 41 79 41 195 c 0
 41 330 137 408 255 408 c 0
 381 408 464 321 464 205 c 0
122 205 m 0
 122 97 174 7 257 7 c 0
 333 7 383 58 383 195 c 0
 383 303 328 393 245 393 c 0
 169 393 122 341 122 205 c 0
EndSplineSet
EndChar

StartChar: p
Encoding: 112 112 17
Width: 544
Flags: MW
HStem: -242 10 -8 15<264 321.5 264 330> 366 42<310.5 328> 390 10<24 36>
VStem: 102 74<-217 8 124.5 143 143 282 331 340> 422 81<146 233.5>
LayerCount: 2
Fore
SplineSet
176 8 m 1xdc
 176 -217 l 2
 176 -225 179 -228 186 -229 c 0
 208 -232 233 -232 257 -232 c 1
 259 -234 l 1
 259 -243 l 1
 229 -242 174 -242 139 -242 c 0
 104 -242 49 -242 19 -243 c 1
 19 -234 l 1
 21 -232 l 1
 45 -232 70 -232 92 -229 c 0
 99 -228 102 -225 102 -217 c 2
 102 375 l 2
 102 383 99 386 92 387 c 0
 73 389 48 390 24 390 c 1
 22 392 l 1
 22 400 l 1
 65 400 136 400 176 402 c 1
 178 400 l 1
 177 381 176 349 176 331 c 1xdc
 208 359 235 378 259 392 c 0
 279 403 299 408 322 408 c 0xec
 437 408 503 326 503 223 c 0
 503 69 394 -8 266 -8 c 0
 235 -8 196 -1 176 8 c 1xdc
176 282 m 2xec
 176 143 l 2
 176 106 180 81 188 64 c 0
 207 26 241 7 287 7 c 0
 356 7 422 69 422 185 c 0
 422 282 377 366 279 366 c 0
 257 366 236 358 212 341 c 0
 185 322 176 313 176 282 c 2xec
EndSplineSet
EndChar

StartChar: q
Encoding: 113 113 13
Width: 522
Flags: MW
HStem: -242 10 -8 42<216 233.5> 393 15<222.5 280>
VStem: 41 81<166.5 254> 368 74<-217 69 69 69 118 257 257 275>
LayerCount: 2
Fore
SplineSet
442 373 m 2
 442 -217 l 2
 442 -225 445 -228 452 -229 c 0
 474 -232 499 -232 523 -232 c 1
 525 -234 l 1
 525 -243 l 1
 495 -242 440 -242 405 -242 c 0
 370 -242 315 -242 285 -243 c 1
 285 -234 l 1
 287 -232 l 1
 311 -232 336 -232 358 -229 c 0
 365 -228 368 -225 368 -217 c 2
 368 69 l 1
 336 41 309 22 285 8 c 0
 265 -4 245 -8 222 -8 c 0
 107 -8 41 74 41 177 c 0
 41 331 150 408 278 408 c 0
 292 408 326 403 352 396 c 0
 367 392 379 390 391 390 c 1
 438 409 l 1
 444 407 l 1
 443 398 442 381 442 373 c 2
368 118 m 2
 368 257 l 2
 368 293 364 319 356 336 c 0
 337 374 303 393 257 393 c 0
 188 393 122 330 122 215 c 0
 122 118 167 34 265 34 c 0
 287 34 308 42 332 59 c 0
 359 78 368 87 368 118 c 2
EndSplineSet
EndChar

StartChar: r
Encoding: 114 114 25
Width: 382
Flags: MW
HStem: 0 10 360 48<256.5 311.5> 390 10<34 46>
VStem: 112 74<25 277 327 336> 339 9<249 261>
LayerCount: 2
Fore
SplineSet
186 327 m 1xb8
 214 360 228 372 251 390 c 0
 267 402 280 408 298 408 c 0
 325 408 344 395 353 379 c 1
 354 375 l 1
 351 337 348 280 348 247 c 1
 341 247 l 1
 339 249 l 1
 339 273 338 287 334 309 c 0
 328 342 304 360 268 360 c 0
 245 360 228 352 213 339 c 0
 190 318 186 307 186 277 c 2xd8
 186 25 l 2
 186 17 189 14 196 13 c 0
 218 10 243 10 267 10 c 1
 269 8 l 1
 269 -1 l 1
 239 0 184 0 149 0 c 0
 114 0 59 0 29 -1 c 1
 29 8 l 1
 31 10 l 1
 55 10 80 10 102 13 c 0
 109 14 112 17 112 25 c 2
 112 375 l 2
 112 383 109 386 102 387 c 0
 83 389 58 390 34 390 c 1
 32 392 l 1
 32 400 l 1
 75 400 146 400 186 402 c 1
 188 400 l 1
 187 381 186 345 186 327 c 1xb8
EndSplineSet
EndChar

StartChar: s
Encoding: 115 115 31
Width: 369
Flags: MW
HStem: -10 12<147 204 146.5 213.5> 403 13<170 216.5>
VStem: 48 9<109.5 120 109.5 122> 61 52<312 329> 272 54<81.5 91> 292 9<283 293.5>
LayerCount: 2
Fore
SplineSet
180 2 m 0xe8
 228 2 272 27 272 69 c 0xe8
 272 113 252 133 163 165 c 0
 95 190 61 227 61 293 c 0
 61 365 122 416 200 416 c 0
 236 416 281 403 302 386 c 1
 303 382 l 1
 301 363 301 307 301 281 c 1
 294 281 l 1
 292 283 l 1
 292 304 287 327 282 340 c 0
 268 374 243 403 190 403 c 0
 150 403 113 380 113 335 c 0xd4
 113 289 132 269 199 244 c 0
 290 210 326 182 326 117 c 0
 326 46 262 -10 165 -10 c 0
 129 -10 77 -1 47 14 c 1
 46 18 l 1
 48 37 48 96 48 122 c 1
 55 122 l 1
 57 120 l 1
 57 99 61 77 67 64 c 0
 83 29 113 2 180 2 c 0xe8
EndSplineSet
EndChar

StartChar: t
Encoding: 116 116 7
Width: 311
Flags: MW
HStem: -8 33<149 239.5> 388 12<35 80 80 93 33 80 167 276>
VStem: 93 74<109 123 123 388>
LayerCount: 2
Fore
SplineSet
35 400 m 1
 80 400 l 2
 118 400 141 441 157 503 c 1
 159 505 l 1
 165 505 l 1
 167 503 l 1
 167 400 l 1
 278 400 l 1
 278 390 l 1
 276 388 l 1
 167 388 l 1
 167 123 l 2
 167 51 192 25 232 25 c 0
 247 25 262 29 284 42 c 1
 287 42 l 1
 290 36 l 1
 265 18 250 10 225 -1 c 0
 212 -6 199 -8 184 -8 c 0
 114 -8 93 34 93 109 c 2
 93 388 l 1
 33 388 l 1
 33 398 l 1
 35 400 l 1
EndSplineSet
EndChar

StartChar: u
Encoding: 117 117 10
Width: 531
Flags: MW
HStem: -8 21G -8 43<168 266> 0 10<511 521 511 523> 390 10<9 21 281 293>
VStem: 87 74<132 146 146 335> 359 74<-2 25 58 69 120 335>
LayerCount: 2
Fore
SplineSet
433 335 m 2x3c
 433 25 l 2x9c
 433 17 436 13 443 13 c 0
 472 11 501 10 521 10 c 1
 523 8 l 1
 523 0 l 1
 493 0 414 0 359 -2 c 1
 357 0 l 1
 358 18 359 47 359 69 c 1x3c
 327 41 300 22 276 9 c 0
 256 -2 234 -8 212 -8 c 0
 124 -8 87 46 87 132 c 2
 87 375 l 2
 87 383 84 386 77 387 c 0
 58 389 33 390 9 390 c 1
 7 392 l 1
 7 400 l 1
 50 400 121 400 161 402 c 1
 163 400 l 1
 162 381 161 353 161 335 c 2
 161 146 l 2
 161 75 193 35 254 35 c 0
 278 35 299 42 322 58 c 0
 347 75 359 87 359 120 c 2x5c
 359 375 l 2
 359 383 356 386 349 387 c 0
 330 389 305 390 281 390 c 1
 279 392 l 1
 279 400 l 1
 322 400 393 400 433 402 c 1
 435 400 l 1
 434 381 433 353 433 335 c 2x3c
EndSplineSet
EndChar

StartChar: v
Encoding: 118 118 26
Width: 481
Flags: MW
HStem: -18 21G<247 251 247 247> 390 10
VStem: -9 514<392 401 392 401>
LayerCount: 2
Fore
SplineSet
419 370 m 2
 251 -18 l 1
 247 -18 l 1
 77 370 l 2
 73 379 67 386 57 387 c 0
 38 389 17 390 -7 390 c 1
 -9 392 l 1
 -9 401 l 1
 21 400 76 400 111 400 c 0
 146 400 201 400 231 401 c 1
 231 392 l 1
 229 390 l 1
 205 390 183 389 161 387 c 0
 154 386 152 382 155 376 c 2
 282 86 l 1
 325 188 380 313 405 377 c 0
 408 384 406 386 399 387 c 0
 379 389 357 390 333 390 c 1
 331 392 l 1
 331 401 l 1
 361 400 390 400 425 400 c 0
 460 400 475 400 505 401 c 1
 505 392 l 1
 503 390 l 1
 479 390 460 390 438 387 c 0
 430 386 424 382 419 370 c 2
EndSplineSet
EndChar

StartChar: w
Encoding: 119 119 27
Width: 721
Flags: MW
HStem: -18 21G<247 251 247 247 487 491 487 487> 390 10<219 243>
VStem: -9 754<392 401 392 401>
LayerCount: 2
Fore
SplineSet
665 400 m 0
 700 400 715 400 745 401 c 1
 745 392 l 1
 743 390 l 1
 719 390 700 390 678 387 c 0
 670 386 664 382 659 370 c 2
 491 -18 l 1
 487 -18 l 1
 367 251 l 1
 251 -18 l 1
 247 -18 l 1
 77 370 l 2
 73 379 67 386 57 387 c 0
 38 389 17 390 -7 390 c 1
 -9 392 l 1
 -9 401 l 1
 38 400 358 400 231 400 c 0
 103 400 417 400 471 401 c 1
 471 392 l 1
 469 390 l 1
 445 390 423 389 401 387 c 0
 394 386 392 382 395 376 c 2
 522 86 l 1
 565 188 620 313 645 377 c 0
 648 384 646 386 639 387 c 0
 619 389 597 390 573 390 c 1
 571 392 l 1
 571 401 l 1
 601 400 630 400 665 400 c 0
282 86 m 1
 307 145 334 209 359 267 c 1
 317 370 l 2
 313 379 307 386 297 387 c 0
 278 389 255 390 231 390 c 0
 207 390 183 389 161 387 c 0
 154 386 152 382 155 376 c 2
 282 86 l 1
EndSplineSet
EndChar

StartChar: x
Encoding: 120 120 99
Width: 463
Flags: MW
HStem: 0 10 390 10
VStem: -20 499<-1 8 -1 8>
LayerCount: 2
Fore
SplineSet
255 238 m 1
 392 31 l 2
 399 20 406 14 417 13 c 0
 436 11 453 10 477 10 c 1
 479 8 l 1
 479 -1 l 1
 449 0 394 0 359 0 c 0
 324 0 269 0 239 -1 c 1
 239 8 l 1
 241 10 l 1
 265 10 280 10 302 13 c 0
 309 14 311 17 308 23 c 2
 206 177 l 1
 148 106 117 66 83 21 c 0
 80 17 82 14 89 13 c 0
 105 11 123 10 147 10 c 1
 149 8 l 1
 149 -1 l 1
 119 0 95 0 60 0 c 0
 25 0 10 0 -20 -1 c 1
 -20 8 l 1
 -18 10 l 1
 6 10 20 11 38 13 c 0
 46 14 57 17 65 27 c 0
 92 57 116 86 199 189 c 1
 80 369 l 2
 73 380 66 386 55 387 c 0
 38 389 25 390 1 390 c 1
 -1 392 l 1
 -1 401 l 1
 29 400 78 400 113 400 c 0
 148 400 194 400 224 401 c 1
 224 392 l 1
 222 390 l 1
 198 390 183 389 170 387 c 0
 163 386 160 383 164 377 c 2
 248 250 l 1
 300 315 325 346 350 379 c 0
 353 383 352 386 346 387 c 0
 332 389 318 390 294 390 c 1
 292 392 l 1
 292 401 l 1
 322 400 337 400 372 400 c 0
 407 400 419 400 449 401 c 1
 449 392 l 1
 447 390 l 1
 423 390 409 389 393 387 c 0
 385 386 375 384 367 374 c 0
 342 346 329 329 255 238 c 1
EndSplineSet
EndChar

StartChar: y
Encoding: 121 121 52
Width: 481
Flags: MW
HStem: -252 45<79 90.5> 390 10
VStem: 20 9<-107 -96 -107 -94>
LayerCount: 2
Fore
SplineSet
155 -204 m 0
 130 -241 105 -252 76 -252 c 0
 54 -252 35 -244 18 -228 c 1
 16 -224 l 1
 17 -198 20 -126 20 -94 c 1
 27 -94 l 1
 29 -96 l 1
 29 -118 31 -133 34 -149 c 0
 41 -183 61 -207 97 -207 c 0
 117 -207 138 -199 157 -169 c 0
 177 -137 198 -97 242 -6 c 1
 77 370 l 2
 73 379 67 386 57 387 c 0
 38 389 17 390 -7 390 c 1
 -9 392 l 1
 -9 401 l 1
 21 400 76 400 111 400 c 0
 146 400 201 400 231 401 c 1
 231 392 l 1
 229 390 l 1
 205 390 183 389 161 387 c 0
 154 386 152 382 155 376 c 2
 282 86 l 1
 325 188 380 313 405 377 c 0
 408 384 406 386 399 387 c 0
 379 389 357 390 333 390 c 1
 331 392 l 1
 331 401 l 1
 361 400 390 400 425 400 c 0
 460 400 475 400 505 401 c 1
 505 392 l 1
 503 390 l 1
 479 390 460 390 438 387 c 0
 430 386 424 382 419 370 c 2
 272 28 l 2
 245 -36 180 -166 155 -204 c 0
EndSplineSet
EndChar

StartChar: z
Encoding: 122 122 98
Width: 455
Flags: MW
HStem: 0 12<176.5 254> 388 12<176 301 223 301 223 309>
VStem: 87 9<286 297 286 300> 403 9<103 114>
LayerCount: 2
Fore
SplineSet
41 1 m 1
 309 388 l 1
 218 388 l 2
 134 388 109 378 100 335 c 0
 97 319 96 308 96 286 c 1
 94 284 l 1
 87 284 l 1
 87 316 86 365 83 398 c 1
 90 402 l 1
 135 400 184 400 262 400 c 0
 340 400 363 400 401 402 c 1
 402 399 l 1
 134 12 l 1
 279 12 l 2
 363 12 391 22 399 65 c 1
 403 81 403 92 403 114 c 1
 405 116 l 1
 412 116 l 1
 412 84 414 35 416 2 c 1
 414 -2 l 1
 370 0 293 0 215 0 c 0
 138 0 81 0 42 -2 c 1
 41 1 l 1
EndSplineSet
EndChar

StartChar: braceleft
Encoding: 123 123 85
Width: 344
Flags: MW
HStem: -92 14<242.5 291 280 291> 301 12<108 118 108 118> 692 14<258 291 280 291>
VStem: 168 51<13 40> 188 54<389 420>
CounterMasks: 1 e0
LayerCount: 2
Fore
SplineSet
165 308 m 1xe8
 229 299 247 260 240 194 c 2xe8
 219 13 l 2
 212 -51 236 -78 280 -78 c 2
 291 -78 l 1
 293 -80 l 1
 293 -90 l 1
 291 -92 l 1
 280 -92 l 2
 205 -92 158 -45 168 40 c 2xf0
 188 225 l 2
 194 283 165 301 118 301 c 2
 108 301 l 1
 106 303 l 1
 106 311 l 1
 108 313 l 1
 118 313 l 2
 165 313 194 330 188 389 c 2xe8
 168 574 l 2
 158 659 205 706 280 706 c 2
 291 706 l 1
 293 704 l 1
 293 694 l 1
 291 692 l 1
 280 692 l 2
 236 692 214 665 221 601 c 2xf0
 242 420 l 2
 249 354 229 316 165 308 c 1xe8
EndSplineSet
EndChar

StartChar: bar
Encoding: 124 124 62
Width: 240
Flags: MW
HStem: -273 1000<114 126 114 126>
VStem: 112 16<-271 725 -271 725>
LayerCount: 2
Fore
SplineSet
114 -273 m 1
 112 -271 l 1
 112 725 l 1
 114 727 l 1
 126 727 l 1
 128 725 l 1
 128 -271 l 1
 126 -273 l 1
 114 -273 l 1
EndSplineSet
EndChar

StartChar: braceright
Encoding: 125 125 86
Width: 344
Flags: MW
HStem: -92 14<53 64 53 64> 301 12<202.5 236 226 236> 692 14<53 64 53 64>
VStem: 102 54<194 225> 125 51
CounterMasks: 1 e0
LayerCount: 2
Fore
SplineSet
179 306 m 1xf0
 115 314 97 354 104 420 c 2xf0
 125 601 l 2
 132 665 108 692 64 692 c 2
 53 692 l 1
 51 694 l 1
 51 704 l 1
 53 706 l 1
 64 706 l 2
 139 706 185 659 176 574 c 2xe8
 156 389 l 2
 150 330 179 313 226 313 c 2
 236 313 l 1
 238 311 l 1
 238 303 l 1
 236 301 l 1
 226 301 l 2
 179 301 150 283 156 225 c 2xf0
 176 40 l 2
 185 -45 139 -92 64 -92 c 2
 53 -92 l 1
 51 -90 l 1
 51 -80 l 1
 53 -78 l 1
 64 -78 l 2
 108 -78 130 -51 123 13 c 2xe8
 102 194 l 2
 95 260 115 297 179 306 c 1xf0
EndSplineSet
EndChar

StartChar: asciitilde
Encoding: 126 126 94
Width: 586
Flags: MW
HStem: 150 39<369.5 447.5> 239 39<138.5 216.5>
VStem: 66 454<202 226>
LayerCount: 2
Fore
SplineSet
277 187 m 0
 219 222 185 239 153 239 c 0
 124 239 107 228 77 195 c 1
 74 195 l 1
 66 202 l 1
 109 255 151 278 196 278 c 0
 237 278 272 264 309 241 c 0
 366 206 401 189 433 189 c 0
 462 189 478 199 509 233 c 1
 512 233 l 1
 520 226 l 1
 477 173 435 150 390 150 c 0
 349 150 314 164 277 187 c 0
EndSplineSet
EndChar

StartChar: yen
Encoding: 165 165 93
Width: 624
Flags: MW
HStem: 0 10 276 14<96 272 96 272 352 528> 365 14<96 247 96 256 96 247 378 528> 606 10
VStem: 272 80<24 276 290 312>
LayerCount: 2
Fore
SplineSet
521 616 m 0
 564 616 571 616 613 617 c 1
 613 608 l 1
 611 606 l 1
 587 606 571 605 554 603 c 0
 545 602 538 598 531 590 c 0
 488 537 473 516 429 452 c 2
 378 379 l 1
 528 379 l 1
 530 377 l 1
 530 367 l 1
 528 365 l 1
 369 365 l 1
 355 346 352 334 352 312 c 2
 352 290 l 1
 528 290 l 1
 530 288 l 1
 530 278 l 1
 528 276 l 1
 352 276 l 1
 352 24 l 2
 352 17 355 14 364 13 c 0
 389 11 423 10 447 10 c 1
 449 8 l 1
 449 -1 l 1
 407 0 355 0 312 0 c 0
 269 0 217 0 175 -1 c 1
 175 8 l 1
 177 10 l 1
 201 10 235 11 260 13 c 0
 269 14 272 17 272 24 c 2
 272 276 l 1
 96 276 l 1
 94 278 l 1
 94 288 l 1
 96 290 l 1
 272 290 l 1
 272 312 l 2
 272 334 268 347 256 365 c 1
 96 365 l 1
 94 367 l 1
 94 377 l 1
 96 379 l 1
 247 379 l 1
 106 590 l 2
 100 598 94 602 85 603 c 0
 60 605 41 606 17 606 c 1
 15 608 l 1
 15 617 l 1
 57 616 100 616 143 616 c 0
 186 616 233 616 275 617 c 1
 275 608 l 1
 273 606 l 1
 249 606 236 605 211 603 c 0
 202 602 197 599 201 593 c 2
 351 367 l 1
 417 462 l 1
 469 535 486 561 507 594 c 0
 511 600 503 602 494 603 c 0
 469 605 449 606 425 606 c 1
 423 608 l 1
 423 617 l 1
 465 616 478 616 521 616 c 0
EndSplineSet
EndChar

StartChar: quoteleft
Encoding: 8216 8216 79
Width: 216
Flags: MW
HStem: 484 93<146.5 152> 484 227<118 159>
VStem: 69 26<589.5 598>
LayerCount: 2
Fore
SplineSet
163 704 m 1x60
 126 681 95 642 95 599 c 0
 95 580 102 566 115 557 c 1
 127 571 139 577 154 577 c 0
 176 577 193 559 193 533 c 0
 193 505 167 484 137 484 c 0
 99 484 69 521 69 565 c 0xa0
 69 631 116 686 159 711 c 1
 163 704 l 1x60
EndSplineSet
EndChar

StartChar: quotedblleft
Encoding: 8220 8220 83
Width: 386
Flags: MW
HStem: 484 93<146.5 152 316.5 322>
VStem: 69 26<589.5 598> 239 26<589.5 598>
LayerCount: 2
Fore
SplineSet
333 704 m 1
 296 681 265 642 265 599 c 0
 265 580 272 566 285 557 c 1
 297 571 309 577 324 577 c 0
 346 577 363 559 363 533 c 0
 363 505 337 484 307 484 c 0
 269 484 239 521 239 565 c 0
 239 631 286 686 329 711 c 1
 333 704 l 1
163 704 m 1
 126 681 95 642 95 599 c 0
 95 580 102 566 115 557 c 1
 127 571 139 577 154 577 c 0
 176 577 193 559 193 533 c 0
 193 505 167 484 137 484 c 0
 99 484 69 521 69 565 c 0
 69 631 116 686 159 711 c 1
 163 704 l 1
EndSplineSet
EndChar

StartChar: quotedblright
Encoding: 8221 8221 84
Width: 386
Flags: MW
HStem: 618 93<64 69.5 234 239.5>
VStem: 121 26<597 605.5> 291 26<597 605.5>
LayerCount: 2
Fore
SplineSet
53 491 m 1
 90 514 121 553 121 596 c 0
 121 615 114 629 101 638 c 1
 89 624 77 618 62 618 c 0
 40 618 23 635 23 662 c 0
 23 690 49 711 79 711 c 0
 117 711 147 674 147 630 c 0
 147 564 100 509 57 484 c 1
 53 491 l 1
223 491 m 1
 260 514 291 553 291 596 c 0
 291 615 284 629 271 638 c 1
 259 624 247 618 232 618 c 0
 210 618 193 635 193 662 c 0
 193 690 219 711 249 711 c 0
 287 711 317 674 317 630 c 0
 317 564 270 509 227 484 c 1
 223 491 l 1
EndSplineSet
EndChar
